<svg viewBox="0 0 512 512" xmlns="http://www.w3.org/2000/svg" shape-rendering="geometricPrecision"><defs><linearGradient id="g0"><stop offset="0%" stop-color="#FFFFFF"/><stop offset="100%" stop-color="#FFFFFF"/></linearGradient><filter id="glow"><feGaussianBlur stdDeviation="3" result="coloredBlur"/><feMerge><feMergeNode in="coloredBlur"/><feMergeNode in="SourceGraphic"/></feMerge></filter><filter id="outerGlow"><feGaussianBlur stdDeviation="8" result="outerBlur"/><feMerge><feMergeNode in="outerBlur"/><feMergeNode in="SourceGraphic"/></feMerge></filter></defs><rect width="100%" height="100%" fill="#0a1a1a"/><path d="M0 512 Q25 512 56 512 Q85 435 116 331 Q144 226 175 119 Q204 16 235 0 Q270 0 315 0 Q364 40 409 147 Q457 251 502 414 Q512 512 512 512 Q512 512 512 512 Q512 508 512 402 Q512 295 512 192 Q512 86 512 0 Q512 0 487 0 Q456 0 427 77 Q396 181 368 304 Q337 471 308 512 Q277 512 247 512 Q219 512 188 472 Q159 365 128 261 Q99 156 68 49 Q40 0 9 0 Q0 0 0 4 Q0 110 0 217 Q0 357 0 512 Q0 512 0 512 Q25 512 56 512 Q85 435 116 331 Q144 226 175 119 Q204 16 235 0 Q270 0 315 0 Q364 40 409 147 Q457 251 502 414 Q512 512 512 512 Q512 512 512 512 Q512 508 512 402 Q512 295 512 192 Q512 86 512 0 Q512 0 487 0 Q456 0 427 77 Q396 181 368 304 Q337 471 308 512 Q277 512 247 512 Q219 512 188 472 Q159 365 128 261 Q99 156 68 49 Q40 0 9 0 Q0 0 0 4 Q0 110 0 217 Q0 357 0 512 Q0 512 0 512" class="main" stroke="url(#g0)" stroke-width="8" stroke-linecap="round" fill="none" opacity="0.9" filter="url(#outerGlow)"/><path d="M0 512 Q25 512 56 512 Q85 435 116 331 Q144 226 175 119 Q204 16 235 0 Q270 0 315 0 Q364 40 409 147 Q457 251 502 414 Q512 512 512 512 Q512 512 512 512 Q512 508 512 402 Q512 295 512 192 Q512 86 512 0 Q512 0 487 0 Q456 0 427 77 Q396 181 368 304 Q337 471 308 512 Q277 512 247 512 Q219 512 188 472 Q159 365 128 261 Q99 156 68 49 Q40 0 9 0 Q0 0 0 4 Q0 110 0 217 Q0 357 0 512 Q0 512 0 512 Q25 512 56 512 Q85 435 116 331 Q144 226 175 119 Q204 16 235 0 Q270 0 315 0 Q364 40 409 147 Q457 251 502 414 Q512 512 512 512 Q512 512 512 512 Q512 508 512 402 Q512 295 512 192 Q512 86 512 0 Q512 0 487 0 Q456 0 427 77 Q396 181 368 304 Q337 471 308 512 Q277 512 247 512 Q219 512 188 472 Q159 365 128 261 Q99 156 68 49 Q40 0 9 0 Q0 0 0 4 Q0 110 0 217 Q0 357 0 512 Q0 512 0 512" class="inner" stroke="url(#g0)" stroke-width="4" stroke-linecap="round" fill="none" opacity="1" filter="url(#glow)"/></svg>