<svg viewBox="0 0 512 512" xmlns="http://www.w3.org/2000/svg" shape-rendering="geometricPrecision"><defs><linearGradient id="g0"><stop offset="0%" stop-color="#FFFFFF"/><stop offset="100%" stop-color="#FFFFFF"/></linearGradient><filter id="glow"><feGaussianBlur stdDeviation="3" result="coloredBlur"/><feMerge><feMergeNode in="coloredBlur"/><feMergeNode in="SourceGraphic"/></feMerge></filter><filter id="outerGlow"><feGaussianBlur stdDeviation="8" result="outerBlur"/><feMerge><feMergeNode in="outerBlur"/><feMergeNode in="SourceGraphic"/></feMerge></filter></defs><rect width="100%" height="100%" fill="#0a1a1a"/><path d="M388 310 Q359 436 330 512 Q300 512 270 512 Q242 495 213 412 Q184 332 154 250 Q124 167 124 87 Q153 5 182 0 Q212 0 242 72 Q279 154 325 235 Q370 351 417 481 Q463 512 388 512 Q359 512 330 469 Q300 386 270 304 Q242 222 213 142 Q184 59 154 0 Q124 0 124 17 Q153 100 182 180 Q212 266 242 395 Q279 512 325 512 Q370 512 417 512 Q463 440 388 358 Q359 277 330 196 Q300 113 270 33 Q242 0 213 0 Q184 43 154 126 Q124 208 124 310 Q153 436 182 512 Q212 512 242 512 Q279 495 325 412 Q370 332 417 250 Q463 167 388 87 Q359 5 330 0 Q300 0 270 72 Q242 154 213 235 Q184 351 154 481 Q124 512 124 512 Q153 512 182 469 Q212 386 242 304 Q279 222 325 142 Q370 59 417 0 Q463 0 388 17 Q359 100 330 180 Q300 266 270 395 Q242 512 213 512 Q184 512 154 512 Q124 440 124 358 Q153 277 182 196 Q212 113 242 33 Q279 0 325 0 Q370 43 417 126 Q463 208 388 310" class="main" stroke="url(#g0)" stroke-width="8" stroke-linecap="round" fill="none" opacity="0.9" filter="url(#outerGlow)"/><path d="M388 310 Q359 436 330 512 Q300 512 270 512 Q242 495 213 412 Q184 332 154 250 Q124 167 124 87 Q153 5 182 0 Q212 0 242 72 Q279 154 325 235 Q370 351 417 481 Q463 512 388 512 Q359 512 330 469 Q300 386 270 304 Q242 222 213 142 Q184 59 154 0 Q124 0 124 17 Q153 100 182 180 Q212 266 242 395 Q279 512 325 512 Q370 512 417 512 Q463 440 388 358 Q359 277 330 196 Q300 113 270 33 Q242 0 213 0 Q184 43 154 126 Q124 208 124 310 Q153 436 182 512 Q212 512 242 512 Q279 495 325 412 Q370 332 417 250 Q463 167 388 87 Q359 5 330 0 Q300 0 270 72 Q242 154 213 235 Q184 351 154 481 Q124 512 124 512 Q153 512 182 469 Q212 386 242 304 Q279 222 325 142 Q370 59 417 0 Q463 0 388 17 Q359 100 330 180 Q300 266 270 395 Q242 512 213 512 Q184 512 154 512 Q124 440 124 358 Q153 277 182 196 Q212 113 242 33 Q279 0 325 0 Q370 43 417 126 Q463 208 388 310" class="inner" stroke="url(#g0)" stroke-width="4" stroke-linecap="round" fill="none" opacity="1" filter="url(#glow)"/></svg>