<svg viewBox="0 0 512 512" xmlns="http://www.w3.org/2000/svg" shape-rendering="geometricPrecision"><defs><linearGradient id="g0"><stop offset="0%" stop-color="#00FFFF"/><stop offset="100%" stop-color="#FF00FF"/></linearGradient><filter id="glow"><feGaussianBlur stdDeviation="3" result="coloredBlur"/><feMerge><feMergeNode in="coloredBlur"/><feMergeNode in="SourceGraphic"/></feMerge></filter><filter id="outerGlow"><feGaussianBlur stdDeviation="8" result="outerBlur"/><feMerge><feMergeNode in="outerBlur"/><feMergeNode in="SourceGraphic"/></feMerge></filter></defs><rect width="100%" height="100%" fill="#1a0d2e"/><path d="M177 62 Q199 118 223 181 Q248 244 279 335 Q317 436 355 512 Q391 411 429 348 Q466 283 504 221 Q512 158 447 95 Q424 86 400 149 Q376 212 352 285 Q328 386 304 485 Q281 442 257 379 Q234 315 210 253 Q186 190 162 127 Q137 62 115 118 Q91 181 66 244 Q73 335 97 436 Q121 512 144 411 Q168 348 192 283 Q216 221 240 158 Q267 95 303 86 Q341 149 379 212 Q417 285 455 386 Q492 485 512 442 Q512 379 432 315 Q408 253 384 190 Q360 127 335 62 Q313 118 289 181 Q264 244 241 335 Q217 436 193 512 Q170 411 146 348 Q122 283 98 221 Q74 158 65 95 Q88 86 112 149 Q136 212 160 285 Q184 386 208 485 Q231 442 255 379 Q291 315 329 253 Q367 190 405 127 Q443 62 478 118 Q512 181 512 244 Q439 335 415 436 Q391 512 368 411 Q344 348 320 283 Q296 221 272 158 Q249 95 226 86 Q202 149 178 212 Q154 285 130 386 Q106 485 83 442 Q59 379 80 315 Q104 253 128 190 Q152 127 177 62" class="main" stroke="url(#g0)" stroke-width="8" stroke-linecap="round" fill="none" opacity="0.9" filter="url(#outerGlow)"/><path d="M177 62 Q199 118 223 181 Q248 244 279 335 Q317 436 355 512 Q391 411 429 348 Q466 283 504 221 Q512 158 447 95 Q424 86 400 149 Q376 212 352 285 Q328 386 304 485 Q281 442 257 379 Q234 315 210 253 Q186 190 162 127 Q137 62 115 118 Q91 181 66 244 Q73 335 97 436 Q121 512 144 411 Q168 348 192 283 Q216 221 240 158 Q267 95 303 86 Q341 149 379 212 Q417 285 455 386 Q492 485 512 442 Q512 379 432 315 Q408 253 384 190 Q360 127 335 62 Q313 118 289 181 Q264 244 241 335 Q217 436 193 512 Q170 411 146 348 Q122 283 98 221 Q74 158 65 95 Q88 86 112 149 Q136 212 160 285 Q184 386 208 485 Q231 442 255 379 Q291 315 329 253 Q367 190 405 127 Q443 62 478 118 Q512 181 512 244 Q439 335 415 436 Q391 512 368 411 Q344 348 320 283 Q296 221 272 158 Q249 95 226 86 Q202 149 178 212 Q154 285 130 386 Q106 485 83 442 Q59 379 80 315 Q104 253 128 190 Q152 127 177 62" class="inner" stroke="url(#g0)" stroke-width="4" stroke-linecap="round" fill="none" opacity="1" filter="url(#glow)"/></svg>