<svg viewBox="0 0 512 512" xmlns="http://www.w3.org/2000/svg" shape-rendering="geometricPrecision"><defs><linearGradient id="g0"><stop offset="0%" stop-color="#FF1493"/><stop offset="100%" stop-color="#FF6B35"/></linearGradient><filter id="glow"><feGaussianBlur stdDeviation="3" result="coloredBlur"/><feMerge><feMergeNode in="coloredBlur"/><feMergeNode in="SourceGraphic"/></feMerge></filter><filter id="outerGlow"><feGaussianBlur stdDeviation="8" result="outerBlur"/><feMerge><feMergeNode in="outerBlur"/><feMergeNode in="SourceGraphic"/></feMerge></filter></defs><rect width="100%" height="100%" fill="#0d2818"/><path d="M266 141 Q290 118 316 153 Q340 188 366 222 Q390 256 416 310 Q440 364 467 418 Q493 473 512 371 Q512 336 512 301 Q442 267 427 234 Q410 199 395 165 Q379 130 362 130 Q347 164 330 199 Q314 233 298 273 Q282 328 266 382 Q250 437 235 394 Q218 359 203 324 Q186 290 171 256 Q154 222 139 188 Q122 153 106 118 Q90 141 74 176 Q58 211 70 245 Q85 292 102 346 Q117 400 133 454 Q150 382 165 348 Q182 313 198 279 Q214 246 230 211 Q246 176 266 141 Q290 118 316 153 Q340 188 366 222 Q390 256 416 310 Q440 364 467 418 Q493 473 512 371 Q512 336 512 301 Q442 267 427 234 Q410 199 395 165 Q379 130 362 130 Q347 164 330 199 Q314 233 298 273 Q282 328 266 382 Q250 437 235 394 Q218 359 203 324 Q186 290 171 256 Q154 222 139 188 Q122 153 106 118 Q90 141 74 176 Q58 211 70 245 Q85 292 102 346 Q117 400 133 454 Q150 382 165 348 Q182 313 198 279 Q214 246 230 211 Q246 176 266 141" class="main" stroke="url(#g0)" stroke-width="8" stroke-linecap="round" fill="none" opacity="0.9" filter="url(#outerGlow)"/><path d="M266 141 Q290 118 316 153 Q340 188 366 222 Q390 256 416 310 Q440 364 467 418 Q493 473 512 371 Q512 336 512 301 Q442 267 427 234 Q410 199 395 165 Q379 130 362 130 Q347 164 330 199 Q314 233 298 273 Q282 328 266 382 Q250 437 235 394 Q218 359 203 324 Q186 290 171 256 Q154 222 139 188 Q122 153 106 118 Q90 141 74 176 Q58 211 70 245 Q85 292 102 346 Q117 400 133 454 Q150 382 165 348 Q182 313 198 279 Q214 246 230 211 Q246 176 266 141 Q290 118 316 153 Q340 188 366 222 Q390 256 416 310 Q440 364 467 418 Q493 473 512 371 Q512 336 512 301 Q442 267 427 234 Q410 199 395 165 Q379 130 362 130 Q347 164 330 199 Q314 233 298 273 Q282 328 266 382 Q250 437 235 394 Q218 359 203 324 Q186 290 171 256 Q154 222 139 188 Q122 153 106 118 Q90 141 74 176 Q58 211 70 245 Q85 292 102 346 Q117 400 133 454 Q150 382 165 348 Q182 313 198 279 Q214 246 230 211 Q246 176 266 141" class="inner" stroke="url(#g0)" stroke-width="4" stroke-linecap="round" fill="none" opacity="1" filter="url(#glow)"/></svg>