<svg viewBox="0 0 512 512" xmlns="http://www.w3.org/2000/svg"><defs><linearGradient id="g0"><stop offset="0%" stop-color="#E6E6E6"/><stop offset="100%" stop-color="#FFFFFF"/></linearGradient><filter id="softGlow" x="-30%" y="-30%" width="160%" height="160%"><feGaussianBlur stdDeviation="5"/></filter><pattern id="hatch" width="6" height="6" patternUnits="userSpaceOnUse" patternTransform="rotate(15)">
<path d="M0 0 L0 6" stroke="#000" stroke-opacity=".05" stroke-width="1"/>
</pattern></defs><rect width="512" height="512" fill="#0f0e10"/><rect width="512" height="512" fill="url(#hatch)" opacity=".06"/><path d="M300 336 Q303 329 306 318 Q305 297 302 284 Q294 259 288 244 Q273 220 264 208 Q247 187 238 178 Q223 166 216 162 Q207 160 204 162 Q205 172 208 178 Q212 189 218 200 Q225 214 234 226 Q251 251 260 268 Q277 290 284 304 Q296 323 302 332 Q306 344 306 348 Q303 350 300 350 Q294 346 288 340 Q279 333 270 324 Q253 305 244 292 Q228 268 220 252 Q210 229 206 214 Q204 194 206 184 Q212 170 218 164 Q225 161 234 160 Q251 164 260 170 Q271 177 280 186 Q288 197 294 210 Q303 233 306 248 Q305 272 302 286 Q294 308 286 320 Q273 336 262 344 Q253 347 242 350 Q227 348 220 344 Q214 338 208 330 Q204 313 204 300 Q209 277 214 262 Q227 237 234 224 Q251 201 262 190 Q277 173 286 166 Q297 161 302 160 Q305 162 306 166 Q305 172 302 180 Q298 190 292 202 Q277 224 268 238 Q252 263 242 278 Q227 301 220 314 Q210 331 206 340 Q204 345 204 348 Q207 350 210 348 Q216 346 224 340 Q233 333 242 324 Q259 302 268 290 Q283 266 290 250 Q301 227 304 212 Q306 193 304 182 Q298 168 292 164 Q283 161 274 160 Q258 165 248 170 Q233 183 224 194 Q212 216 208 230 Q204 255 204 270 Q210 293 214 306 Q227 325 236 334 Q252 345 262 348 Q272 350 282 348 Q289 345 296 340" stroke="url(#g0)" stroke-linecap="round" stroke-linejoin="round" stroke-width="10" fill="none" opacity="0.15"/><path d="M166 171 Q150 165 131 160 Q104 158 90 159 Q74 168 67 175 Q61 193 61 205 Q64 219 70 234 Q85 260 96 274 Q122 299 139 312 Q172 331 194 340 Q231 350 254 353 Q291 353 314 349 Q350 339 369 329 Q398 310 412 297 Q432 272 441 256 Q449 232 451 217 Q447 195 441 183 Q426 169 414 163 Q389 158 372 158 Q338 164 316 170 Q279 186 256 198 Q218 220 196 235 Q161 260 142 275 Q113 300 98 313 Q79 331 70 340 Q62 350 61 353 Q65 353 70 349 Q86 338 97 329 Q123 309 141 296 Q174 270 195 256 Q232 231 257 215 Q294 194 315 183 Q351 168 371 162 Q399 158 414 158 Q433 165 441 171 Q449 187 451 198 Q447 221 441 236 Q426 261 413 276 Q388 301 369 313 Q336 333 315 341 Q278 351 255 353 Q216 352 195 348 Q160 337 141 328 Q112 309 97 294 Q78 270 70 255 Q62 229 61 214 Q65 194 71 182 Q87 168 99 162 Q125 158 142 158 Q176 165 197 171 Q235 188 257 199 Q295 222 318 237 Q353 262 372 277 Q400 301 414 314 Q434 333 442 341 Q449 351 451 353 Q446 352 440 348 Q425 337 412 327 Q386 307 369 294 Q335 269 313 254 Q276 228 254 214 Q214 192 192 181" stroke="url(#g0)" stroke-linecap="round" stroke-linejoin="round" stroke-width="21" fill="none" opacity=".38" filter="url(#softGlow)"/><path d="M166 171 Q150 165 131 160 Q104 158 90 159 Q74 168 67 175 Q61 193 61 205 Q64 219 70 234 Q85 260 96 274 Q122 299 139 312 Q172 331 194 340 Q231 350 254 353 Q291 353 314 349 Q350 339 369 329 Q398 310 412 297 Q432 272 441 256 Q449 232 451 217 Q447 195 441 183 Q426 169 414 163 Q389 158 372 158 Q338 164 316 170 Q279 186 256 198 Q218 220 196 235 Q161 260 142 275 Q113 300 98 313 Q79 331 70 340 Q62 350 61 353 Q65 353 70 349 Q86 338 97 329 Q123 309 141 296 Q174 270 195 256 Q232 231 257 215 Q294 194 315 183 Q351 168 371 162 Q399 158 414 158 Q433 165 441 171 Q449 187 451 198 Q447 221 441 236 Q426 261 413 276 Q388 301 369 313 Q336 333 315 341 Q278 351 255 353 Q216 352 195 348 Q160 337 141 328 Q112 309 97 294 Q78 270 70 255 Q62 229 61 214 Q65 194 71 182 Q87 168 99 162 Q125 158 142 158 Q176 165 197 171 Q235 188 257 199 Q295 222 318 237 Q353 262 372 277 Q400 301 414 314 Q434 333 442 341 Q449 351 451 353 Q446 352 440 348 Q425 337 412 327 Q386 307 369 294 Q335 269 313 254 Q276 228 254 214 Q214 192 192 181" stroke="url(#g0)" stroke-linecap="round" stroke-linejoin="round" stroke-width="3" fill="none" opacity=".95"/></svg>