<svg viewBox="0 0 512 512" xmlns="http://www.w3.org/2000/svg"><defs><linearGradient id="g0"><stop offset="0%" stop-color="#E6E6E6"/><stop offset="100%" stop-color="#FFFFFF"/></linearGradient><filter id="softGlow" x="-30%" y="-30%" width="160%" height="160%"><feGaussianBlur stdDeviation="4"/></filter><pattern id="hatch" width="6" height="6" patternUnits="userSpaceOnUse" patternTransform="rotate(15)">
<path d="M0 0 L0 6" stroke="#000" stroke-opacity=".05" stroke-width="1"/>
</pattern></defs><rect width="512" height="512" fill="#0f0e10"/><rect width="512" height="512" fill="url(#hatch)" opacity=".06"/><path d="M394 377 Q404 361 410 338 Q398 300 381 275 Q337 235 305 211 Q246 171 210 150 Q158 117 132 100 Q107 76 102 64 Q114 53 131 49 Q156 48 184 50 Q244 60 278 69 Q334 90 364 106 Q397 138 408 158 Q405 197 393 220 Q356 261 324 287 Q268 325 233 347 Q175 383 146 401 Q114 427 103 440 Q107 455 118 460 Q140 464 165 463 Q221 456 256 449 Q315 429 346 415 Q387 385 402 366 Q408 330 401 305 Q371 265 345 241 Q289 200 254 177 Q196 142 164 121 Q124 93 108 79 Q103 61 110 53 Q126 49 149 48 Q199 52 233 57 Q294 74 328 87 Q374 114 394 133 Q409 168 407 189 Q385 231 361 255 Q312 296 276 319 Q217 357 183 378 Q137 408 117 423 Q103 445 104 453 Q116 460 133 463 Q178 462 213 458 Q271 445 307 432 Q359 409 383 390 Q406 357 409 334 Q396 296 378 272 Q332 231 298 206 Q239 168 204 146 Q152 115 129 97 Q106 74 102 63 Q116 52 134 48 Q160 48 190 50 Q249 61 286 71 Q340 93 368 110 Q400 142 408 163 Q403 200 390 224 Q351 265 320 290 Q262 330 225 351 Q170 385 143 404 Q112 429 103 442 Q108 456 121 461 Q143 464 170 463 Q227 455 263 447 Q321 427 352 412" stroke="url(#g0)" stroke-linecap="round" stroke-linejoin="round" stroke-width="21" fill="none" opacity=".38" filter="url(#softGlow)"/><path d="M394 377 Q404 361 410 338 Q398 300 381 275 Q337 235 305 211 Q246 171 210 150 Q158 117 132 100 Q107 76 102 64 Q114 53 131 49 Q156 48 184 50 Q244 60 278 69 Q334 90 364 106 Q397 138 408 158 Q405 197 393 220 Q356 261 324 287 Q268 325 233 347 Q175 383 146 401 Q114 427 103 440 Q107 455 118 460 Q140 464 165 463 Q221 456 256 449 Q315 429 346 415 Q387 385 402 366 Q408 330 401 305 Q371 265 345 241 Q289 200 254 177 Q196 142 164 121 Q124 93 108 79 Q103 61 110 53 Q126 49 149 48 Q199 52 233 57 Q294 74 328 87 Q374 114 394 133 Q409 168 407 189 Q385 231 361 255 Q312 296 276 319 Q217 357 183 378 Q137 408 117 423 Q103 445 104 453 Q116 460 133 463 Q178 462 213 458 Q271 445 307 432 Q359 409 383 390 Q406 357 409 334 Q396 296 378 272 Q332 231 298 206 Q239 168 204 146 Q152 115 129 97 Q106 74 102 63 Q116 52 134 48 Q160 48 190 50 Q249 61 286 71 Q340 93 368 110 Q400 142 408 163 Q403 200 390 224 Q351 265 320 290 Q262 330 225 351 Q170 385 143 404 Q112 429 103 442 Q108 456 121 461 Q143 464 170 463 Q227 455 263 447 Q321 427 352 412" stroke="url(#g0)" stroke-linecap="round" stroke-linejoin="round" stroke-width="3" fill="none" opacity=".95"/></svg>