<svg viewBox="0 0 512 512" xmlns="http://www.w3.org/2000/svg"><defs><linearGradient id="g0"><stop offset="0%" stop-color="#E6E6E6"/><stop offset="100%" stop-color="#FFFFFF"/></linearGradient><filter id="softGlow" x="-30%" y="-30%" width="160%" height="160%"><feGaussianBlur stdDeviation="5"/></filter><pattern id="hatch" width="6" height="6" patternUnits="userSpaceOnUse" patternTransform="rotate(15)">
<path d="M0 0 L0 6" stroke="#000" stroke-opacity=".05" stroke-width="1"/>
</pattern></defs><rect width="512" height="512" fill="#0f0e10"/><rect width="512" height="512" fill="url(#hatch)" opacity=".06"/><path d="M398 200 Q395 197 390 194 Q379 192 372 192 Q359 192 350 194 Q335 200 324 204 Q305 212 294 218 Q282 225 270 232 Q252 244 238 252 Q220 264 208 272 Q198 278 186 286 Q169 296 160 302 Q145 309 138 312 Q126 317 120 318 Q113 318 108 318 Q105 315 104 312 Q104 307 104 302 Q109 294 112 288 Q119 276 124 268 Q131 261 138 254 Q151 241 160 234 Q176 222 188 216 Q206 207 218 202 Q228 199 240 196 Q260 192 272 192 Q291 192 302 194 Q320 197 330 202 Q348 210 356 214 Q370 226 378 232 Q388 244 394 252 Q400 265 402 272 Q406 284 406 290 Q405 296 404 302 Q401 306 398 310 Q394 313 390 316 Q383 318 376 318 Q369 319 362 318 Q352 316 342 314 Q326 307 314 302 Q296 294 286 286 Q266 275 254 268 Q234 256 222 248 Q204 235 192 228 Q174 218 164 212 Q149 204 142 200 Q130 195 124 192 Q115 192 112 192 Q106 195 104 196 Q104 201 104 204 Q107 214 110 220 Q113 226 118 232 Q128 245 134 254 Q142 260 150 268 Q165 279 174 286 Q193 296 202 302 Q222 310 234 314 Q253 317 266 318 Q285 318 296 318 Q314 313 324 310 Q343 303 352 298 Q366 288 374 282 Q385 270 390 262 Q398 250 402 242 Q404 234 406 228 Q406 222 406 216 Q403 206 400 202" stroke="url(#g0)" stroke-linecap="round" stroke-linejoin="round" stroke-width="10" fill="none" opacity="0.15"/><path d="M271 287 Q230 306 182 326 Q109 346 73 349 Q29 339 13 325 Q9 290 17 264 Q55 222 87 200 Q157 173 200 164 Q283 165 333 175 Q403 205 438 227 Q484 271 499 296 Q503 329 492 342 Q473 349 446 348 Q383 332 340 316 Q260 277 210 250 Q136 210 95 190 Q43 168 21 162 Q8 170 11 183 Q25 202 47 224 Q102 267 143 291 Q220 326 269 340 Q348 349 390 345 Q451 324 477 305 Q502 264 504 237 Q486 199 464 181 Q408 164 366 162 Q291 176 240 192 Q163 229 118 254 Q60 296 33 317 Q9 342 7 349 Q25 344 48 332 Q104 300 145 276 Q223 233 271 209 Q349 179 393 167 Q453 163 478 170 Q502 195 504 216 Q496 242 479 268 Q432 307 393 326 Q319 346 272 349 Q192 339 144 324 Q80 288 48 263 Q16 221 7 198 Q16 172 33 163 Q81 166 118 175 Q194 206 239 228 Q321 272 369 297 Q433 329 463 342 Q496 349 504 344 Q495 321 477 300 Q429 259 391 232 Q317 195 269 177 Q188 163 142 163 Q78 179 46 195 Q15 234 7 259 Q17 301 34 321 Q82 344 121 349 Q195 342 243 329 Q324 296 369 272 Q434 229 466 204 Q496 176 504 165 Q494 164 476 172 Q450 187 416 206 Q346 247 300 272" stroke="url(#g0)" stroke-linecap="round" stroke-linejoin="round" stroke-width="21" fill="none" opacity=".38" filter="url(#softGlow)"/><path d="M271 287 Q230 306 182 326 Q109 346 73 349 Q29 339 13 325 Q9 290 17 264 Q55 222 87 200 Q157 173 200 164 Q283 165 333 175 Q403 205 438 227 Q484 271 499 296 Q503 329 492 342 Q473 349 446 348 Q383 332 340 316 Q260 277 210 250 Q136 210 95 190 Q43 168 21 162 Q8 170 11 183 Q25 202 47 224 Q102 267 143 291 Q220 326 269 340 Q348 349 390 345 Q451 324 477 305 Q502 264 504 237 Q486 199 464 181 Q408 164 366 162 Q291 176 240 192 Q163 229 118 254 Q60 296 33 317 Q9 342 7 349 Q25 344 48 332 Q104 300 145 276 Q223 233 271 209 Q349 179 393 167 Q453 163 478 170 Q502 195 504 216 Q496 242 479 268 Q432 307 393 326 Q319 346 272 349 Q192 339 144 324 Q80 288 48 263 Q16 221 7 198 Q16 172 33 163 Q81 166 118 175 Q194 206 239 228 Q321 272 369 297 Q433 329 463 342 Q496 349 504 344 Q495 321 477 300 Q429 259 391 232 Q317 195 269 177 Q188 163 142 163 Q78 179 46 195 Q15 234 7 259 Q17 301 34 321 Q82 344 121 349 Q195 342 243 329 Q324 296 369 272 Q434 229 466 204 Q496 176 504 165 Q494 164 476 172 Q450 187 416 206 Q346 247 300 272" stroke="url(#g0)" stroke-linecap="round" stroke-linejoin="round" stroke-width="3" fill="none" opacity=".95"/></svg>