<svg viewBox="0 0 512 512" xmlns="http://www.w3.org/2000/svg"><defs><linearGradient id="g0"><stop offset="0%" stop-color="#E6E6E6"/><stop offset="100%" stop-color="#FFFFFF"/></linearGradient><filter id="softGlow" x="-30%" y="-30%" width="160%" height="160%"><feGaussianBlur stdDeviation="5"/></filter><pattern id="hatch" width="6" height="6" patternUnits="userSpaceOnUse" patternTransform="rotate(15)">
<path d="M0 0 L0 6" stroke="#000" stroke-opacity=".05" stroke-width="1"/>
</pattern></defs><rect width="512" height="512" fill="#0f0e10"/><rect width="512" height="512" fill="url(#hatch)" opacity=".06"/><path d="M272 272 Q304 282 344 294 Q393 311 414 318 Q412 319 390 314 Q337 301 300 290 Q230 270 192 258 Q135 236 108 222 Q84 205 80 196 Q88 191 104 188 Q130 188 162 190 Q225 198 266 206 Q332 224 366 236 Q409 257 424 270 Q428 292 418 302 Q397 311 370 318 Q311 323 270 322 Q203 316 164 310 Q116 294 94 282 Q80 261 84 248 Q99 234 122 222 Q175 205 212 196 Q281 189 320 188 Q378 191 404 196 Q427 209 430 220 Q410 241 388 254 Q334 276 296 288 Q228 305 188 314 Q132 321 106 324 Q83 319 80 314 Q100 300 122 290 Q176 268 214 256 Q283 234 324 222 Q378 205 404 196 Q428 189 430 188 Q410 191 388 196 Q332 210 294 220 Q227 242 186 254 Q130 277 104 288 Q82 307 80 314 Q100 321 122 324 Q178 319 216 314 Q284 300 324 290 Q380 268 406 254 Q428 233 430 222 Q419 210 402 200 Q356 191 320 188 Q252 189 212 192 Q150 205 120 214 Q88 234 80 246 Q91 268 108 282 Q135 294 168 304 Q231 316 272 320 Q338 322 372 320 Q412 311 426 302 Q426 284 414 272 Q375 250 344 238 Q278 216 238 206 Q172 194 136 190 Q98 188 84 190 Q84 199 96 208 Q136 226 168 238 Q233 260 262 270" stroke="url(#g0)" stroke-linecap="round" stroke-linejoin="round" stroke-width="10" fill="none" opacity="0.15"/><path d="M329 136 Q368 146 408 166 Q445 214 450 246 Q424 302 393 332 Q316 367 264 378 Q178 374 132 361 Q78 320 63 290 Q71 234 94 200 Q160 158 206 141 Q297 133 347 139 Q412 171 439 199 Q448 253 436 286 Q385 336 340 359 Q253 378 201 378 Q126 357 90 334 Q63 283 64 250 Q100 196 136 168 Q216 140 270 132 Q355 142 397 159 Q441 204 450 236 Q432 293 402 324 Q333 361 282 375 Q192 376 143 365 Q86 330 66 299 Q67 244 84 211 Q145 165 192 144 Q280 132 332 136 Q402 164 433 189 Q450 242 442 276 Q418 308 383 337 Q306 370 255 378 Q167 372 123 356 Q75 315 62 282 Q75 227 100 194 Q168 154 219 138 Q308 134 356 142 Q419 176 442 204 Q447 260 431 293 Q377 341 331 363 Q245 379 191 377 Q117 353 85 329 Q62 277 66 243 Q86 210 118 180 Q193 145 246 134 Q333 137 378 150 Q432 190 448 220 Q441 278 419 309 Q354 353 305 370 Q217 379 166 372 Q100 341 74 315 Q63 259 74 226 Q125 176 170 153 Q256 134 307 133 Q386 154 421 177 Q449 226 447 261 Q412 315 375 342 Q296 372 242 379 Q157 370 116 352 Q71 309 61 276 Q79 220 107 189 Q178 150 229 136" stroke="url(#g0)" stroke-linecap="round" stroke-linejoin="round" stroke-width="21" fill="none" opacity=".38" filter="url(#softGlow)"/><path d="M329 136 Q368 146 408 166 Q445 214 450 246 Q424 302 393 332 Q316 367 264 378 Q178 374 132 361 Q78 320 63 290 Q71 234 94 200 Q160 158 206 141 Q297 133 347 139 Q412 171 439 199 Q448 253 436 286 Q385 336 340 359 Q253 378 201 378 Q126 357 90 334 Q63 283 64 250 Q100 196 136 168 Q216 140 270 132 Q355 142 397 159 Q441 204 450 236 Q432 293 402 324 Q333 361 282 375 Q192 376 143 365 Q86 330 66 299 Q67 244 84 211 Q145 165 192 144 Q280 132 332 136 Q402 164 433 189 Q450 242 442 276 Q418 308 383 337 Q306 370 255 378 Q167 372 123 356 Q75 315 62 282 Q75 227 100 194 Q168 154 219 138 Q308 134 356 142 Q419 176 442 204 Q447 260 431 293 Q377 341 331 363 Q245 379 191 377 Q117 353 85 329 Q62 277 66 243 Q86 210 118 180 Q193 145 246 134 Q333 137 378 150 Q432 190 448 220 Q441 278 419 309 Q354 353 305 370 Q217 379 166 372 Q100 341 74 315 Q63 259 74 226 Q125 176 170 153 Q256 134 307 133 Q386 154 421 177 Q449 226 447 261 Q412 315 375 342 Q296 372 242 379 Q157 370 116 352 Q71 309 61 276 Q79 220 107 189 Q178 150 229 136" stroke="url(#g0)" stroke-linecap="round" stroke-linejoin="round" stroke-width="3" fill="none" opacity=".95"/></svg>