<svg viewBox="0 0 512 512" xmlns="http://www.w3.org/2000/svg"><defs><linearGradient id="g0"><stop offset="0%" stop-color="#E6E6E6"/><stop offset="100%" stop-color="#FFFFFF"/></linearGradient><filter id="softGlow" x="-30%" y="-30%" width="160%" height="160%"><feGaussianBlur stdDeviation="4"/></filter><pattern id="hatch" width="6" height="6" patternUnits="userSpaceOnUse" patternTransform="rotate(15)">
<path d="M0 0 L0 6" stroke="#000" stroke-opacity=".05" stroke-width="1"/>
</pattern></defs><rect width="512" height="512" fill="#0f0e10"/><rect width="512" height="512" fill="url(#hatch)" opacity=".06"/><path d="M91 -14 Q120 -2 158 33 Q237 141 284 219 Q360 359 399 430 Q444 509 458 526 Q456 491 440 442 Q390 316 352 235 Q275 103 224 39 Q150 -11 112 -9 Q82 22 60 71 Q51 143 52 220 Q80 362 110 433 Q176 510 223 525 Q303 490 348 439 Q411 315 438 230 Q460 99 459 39 Q431 -11 401 -9 Q363 23 318 75 Q241 197 191 283 Q122 412 89 474 Q56 522 50 519 Q67 455 89 390 Q149 257 193 172 Q273 56 320 10 Q390 -11 422 10 Q446 57 459 119 Q455 257 438 341 Q388 456 347 502 Q271 522 220 501 Q175 453 134 390 Q80 255 58 168 Q52 54 60 10 Q102 -11 137 12 Q179 57 225 122 Q307 259 350 341 Q414 457 440 502 Q444 452 419 387 Q359 251 315 167 Q236 54 189 8 Q119 -10 87 12 Q65 59 52 126 Q57 261 74 346 Q126 459 168 504 Q245 522 293 499 Q338 451 380 387 Q434 247 453 162 Q460 52 449 6 Q407 -10 374 12 Q329 63 283 126 Q202 264 158 346 Q96 461 69 504 Q69 449 93 383 Q155 245 198 162 Q280 49 325 6 Q393 -10 426 13 Q448 64 460 130 Q454 267 435 350 Q384 462 341 507 Q265 521 215 497 Q171 447 127 378 Q76 243 58 162 Q52 48 62 4" stroke="url(#g0)" stroke-linecap="round" stroke-linejoin="round" stroke-width="21" fill="none" opacity=".38" filter="url(#softGlow)"/><path d="M91 -14 Q120 -2 158 33 Q237 141 284 219 Q360 359 399 430 Q444 509 458 526 Q456 491 440 442 Q390 316 352 235 Q275 103 224 39 Q150 -11 112 -9 Q82 22 60 71 Q51 143 52 220 Q80 362 110 433 Q176 510 223 525 Q303 490 348 439 Q411 315 438 230 Q460 99 459 39 Q431 -11 401 -9 Q363 23 318 75 Q241 197 191 283 Q122 412 89 474 Q56 522 50 519 Q67 455 89 390 Q149 257 193 172 Q273 56 320 10 Q390 -11 422 10 Q446 57 459 119 Q455 257 438 341 Q388 456 347 502 Q271 522 220 501 Q175 453 134 390 Q80 255 58 168 Q52 54 60 10 Q102 -11 137 12 Q179 57 225 122 Q307 259 350 341 Q414 457 440 502 Q444 452 419 387 Q359 251 315 167 Q236 54 189 8 Q119 -10 87 12 Q65 59 52 126 Q57 261 74 346 Q126 459 168 504 Q245 522 293 499 Q338 451 380 387 Q434 247 453 162 Q460 52 449 6 Q407 -10 374 12 Q329 63 283 126 Q202 264 158 346 Q96 461 69 504 Q69 449 93 383 Q155 245 198 162 Q280 49 325 6 Q393 -10 426 13 Q448 64 460 130 Q454 267 435 350 Q384 462 341 507 Q265 521 215 497 Q171 447 127 378 Q76 243 58 162 Q52 48 62 4" stroke="url(#g0)" stroke-linecap="round" stroke-linejoin="round" stroke-width="3" fill="none" opacity=".95"/></svg>