<svg viewBox="0 0 512 512" xmlns="http://www.w3.org/2000/svg"><!-- Token #1004 | Neon Flame | Common --><defs><linearGradient id="g0"><stop offset="0%" stop-color="#ff6e00"/><stop offset="100%" stop-color="#ffe45b"/></linearGradient><filter id="softGlow" x="-30%" y="-30%" width="160%" height="160%"><feGaussianBlur stdDeviation="8.666666666666666"/></filter><pattern id="hatch" width="6" height="6" patternUnits="userSpaceOnUse" patternTransform="rotate(15)"><path d="M0 0 L0 6" stroke="#000" stroke-opacity=".05" stroke-width="1"/></pattern></defs><rect width="512" height="512" fill="#1d1a1b"/><rect width="512" height="512" fill="url(#hatch)" opacity=".06"/><path d="M342 232 Q336 213 328 192 Q304 165 286 156 Q253 152 232 158 Q202 178 188 196 Q172 234 168 258 Q174 298 182 318 Q206 345 224 354 Q258 357 278 352 Q309 331 324 312 Q338 276 342 252 Q336 211 328 190 Q303 165 286 154 Q251 153 230 158 Q201 179 186 198 Q172 236 168 258 Q174 299 182 320 Q207 346 224 356 Q259 358 280 352 Q298 341 314 324 Q334 290 340 266 Q340 226 334 204 Q313 173 296 160 Q264 152 244 154 Q212 169 196 186 Q176 220 170 244 Q170 284 176 306 Q197 337 214 350 Q246 358 266 356 Q298 341 316 324 Q334 289 340 266 Q340 225 334 202 Q313 173 296 160 Q264 152 244 154 Q211 170 194 186 Q175 222 170 244 Q171 285 176 308 Q198 337 214 350 Q247 358 268 356 Q299 340 316 324 Q335 288 340 266 Q340 224 332 202 Q312 173 294 158 Q263 152 242 154 Q210 171 194 188 Q175 222 170 246 Q171 287 176 308 Q199 339 216 350 Q248 358 268 356 Q300 339 316 322 Q335 287 340 264 Q339 223 332 200 Q311 171 294 158 Q261 152 242 154 Q210 171 194 188 Q175 223 170 246 Q171 287 178 310 Q199 339 216 352 Q249 358 270 356 Q300 339 316 322 Q335 287 342 262" stroke="url(#g0)" stroke-linecap="round" stroke-linejoin="round" stroke-width="8" fill="none" opacity="0.12"/><path d="M208 302 Q233 305 264 310 Q311 315 336 318 Q361 320 366 322 Q355 324 340 324 Q316 324 290 324 Q238 322 210 320 Q170 317 154 314 Q163 302 184 298 Q229 290 258 286 Q307 277 332 272 Q359 262 366 258 Q358 248 342 244 Q320 238 294 232 Q245 224 214 220 Q173 212 156 208 Q144 201 148 198 Q161 195 180 192 Q224 189 254 188 Q303 186 328 186 Q357 186 366 188 Q359 189 346 192 Q324 193 298 196 Q250 201 218 204 Q176 211 158 216 Q144 223 148 228 Q159 233 176 238 Q201 244 228 250 Q279 258 308 264 Q346 272 360 278 Q342 295 320 300 Q274 306 244 310 Q195 315 172 318 Q149 321 144 322 Q157 324 172 324 Q197 324 224 324 Q274 322 304 320 Q343 317 358 314 Q344 301 324 298 Q278 289 248 284 Q200 277 176 270 Q150 262 144 256 Q154 248 170 242 Q193 238 220 232 Q270 223 298 220 Q340 211 356 208 Q366 201 360 198 Q347 195 328 192 Q282 189 254 188 Q205 186 178 186 Q152 186 144 188 Q152 189 168 192 Q206 195 236 198 Q286 204 312 208 Q349 215 362 220 Q364 227 354 232 Q337 238 316 244 Q267 252 238 256 Q191 266 168 272 Q148 280 144 286 Q151 290 164 294" stroke="url(#g0)" stroke-linecap="round" stroke-linejoin="round" stroke-width="10" fill="none" opacity="0.18"/><path d="M113 33 Q165 34 230 40 Q345 62 409 81 Q491 124 525 152 Q546 209 540 242 Q490 300 446 334 Q344 385 279 412 Q166 448 99 463 Q19 477 -14 478 Q-35 467 -28 454 Q-3 437 34 413 Q126 368 188 338 Q304 279 367 245 Q463 187 507 154 Q543 107 546 82 Q513 53 474 40 Q386 33 319 35 Q206 53 143 68 Q47 108 3 135 Q-32 188 -35 222 Q-1 279 37 315 Q128 367 192 397 Q307 437 373 454 Q464 474 508 478 Q544 473 546 463 Q531 448 500 427 Q421 385 361 356 Q249 300 181 266 Q78 206 29 173 Q-23 123 -36 96 Q-18 62 11 46 Q54 38 111 33 Q219 39 284 48 Q396 77 451 101 Q519 146 541 180 Q542 235 521 269 Q456 328 399 359 Q291 408 224 431 Q115 460 59 472 Q-8 478 -30 475 Q-30 458 -10 441 Q26 418 76 393 Q175 342 245 309 Q357 252 418 216 Q497 162 529 131 Q546 87 537 67 Q510 51 469 39 Q377 33 313 36 Q199 54 131 72 Q41 110 0 138 Q-33 192 -34 225 Q3 284 42 319 Q136 372 202 400 Q313 438 380 457 Q471 474 511 479 Q545 472 545 462 Q527 446 496 424 Q414 382 354 350 Q240 296 172 262 Q73 203 23 170 Q-25 119 -36 93 Q-15 60 15 45" stroke="url(#g0)" stroke-linecap="round" stroke-linejoin="round" stroke-width="22" fill="none" opacity="0.37" filter="url(#softGlow)"/><path d="M113 33 Q165 34 230 40 Q345 62 409 81 Q491 124 525 152 Q546 209 540 242 Q490 300 446 334 Q344 385 279 412 Q166 448 99 463 Q19 477 -14 478 Q-35 467 -28 454 Q-3 437 34 413 Q126 368 188 338 Q304 279 367 245 Q463 187 507 154 Q543 107 546 82 Q513 53 474 40 Q386 33 319 35 Q206 53 143 68 Q47 108 3 135 Q-32 188 -35 222 Q-1 279 37 315 Q128 367 192 397 Q307 437 373 454 Q464 474 508 478 Q544 473 546 463 Q531 448 500 427 Q421 385 361 356 Q249 300 181 266 Q78 206 29 173 Q-23 123 -36 96 Q-18 62 11 46 Q54 38 111 33 Q219 39 284 48 Q396 77 451 101 Q519 146 541 180 Q542 235 521 269 Q456 328 399 359 Q291 408 224 431 Q115 460 59 472 Q-8 478 -30 475 Q-30 458 -10 441 Q26 418 76 393 Q175 342 245 309 Q357 252 418 216 Q497 162 529 131 Q546 87 537 67 Q510 51 469 39 Q377 33 313 36 Q199 54 131 72 Q41 110 0 138 Q-33 192 -34 225 Q3 284 42 319 Q136 372 202 400 Q313 438 380 457 Q471 474 511 479 Q545 472 545 462 Q527 446 496 424 Q414 382 354 350 Q240 296 172 262 Q73 203 23 170 Q-25 119 -36 93 Q-15 60 15 45" stroke="url(#g0)" stroke-linecap="round" stroke-linejoin="round" stroke-width="3" fill="none" opacity=".95"/></svg>