<svg viewBox="0 0 512 512" xmlns="http://www.w3.org/2000/svg"><!-- Token #1009 | Electric Blue | Legendary --><defs><linearGradient id="g0"><stop offset="0%" stop-color="#0db1d6"/><stop offset="50%" stop-color="#15a9ee"/><stop offset="100%" stop-color="#015aca"/></linearGradient><filter id="softGlow" x="-30%" y="-30%" width="160%" height="160%"><feGaussianBlur stdDeviation="9"/></filter><pattern id="hatch" width="6" height="6" patternUnits="userSpaceOnUse" patternTransform="rotate(15)"><path d="M0 0 L0 6" stroke="#000" stroke-opacity=".05" stroke-width="1"/></pattern><pattern id="shimmer" width="4" height="4" patternUnits="userSpaceOnUse"><rect width="2" height="2" fill="#fff" opacity=".3"/></pattern></defs><rect width="512" height="512" fill="#30c1b"/><rect width="512" height="512" fill="url(#hatch)" opacity=".06"/><rect width="512" height="512" fill="url(#shimmer)" opacity=".1"/><path d="M284 112 Q275 118 264 126 Q244 141 234 150 Q217 167 210 178 Q199 199 196 210 Q197 232 200 244 Q210 266 218 280 Q235 300 246 314 Q266 332 276 342 Q293 361 302 372 Q311 385 314 392 Q313 403 310 408 Q304 413 298 416 Q289 419 278 420 Q260 420 248 418 Q230 413 220 410 Q206 400 200 394 Q196 381 196 372 Q199 363 204 352 Q215 335 226 324 Q236 310 246 298 Q266 278 278 264 Q293 243 302 230 Q311 208 314 196 Q313 178 310 166 Q300 147 292 138 Q274 124 262 116 Q252 110 240 106 Q223 97 214 94 Q202 90 198 90 Q199 95 204 98 Q216 106 226 112 Q236 119 248 126 Q266 141 278 150 Q293 168 302 178 Q311 200 314 212 Q313 234 310 246 Q299 267 290 282 Q273 302 262 314 Q243 333 232 344 Q217 363 208 372 Q202 381 198 388 Q196 400 198 406 Q206 413 214 416 Q230 420 240 420 Q252 420 264 418 Q282 413 292 408 Q304 400 310 394 Q314 379 314 372 Q311 361 306 352 Q293 334 284 320 Q266 300 254 288 Q235 268 224 256 Q210 232 204 220 Q197 199 196 188 Q199 169 204 156 Q217 141 226 132 Q244 119 256 112 Q275 102 286 98 Q300 93 306 90 Q313 90 314 92 Q310 95 306 98 Q299 103 290 108" stroke="url(#g0)" stroke-linecap="round" stroke-linejoin="round" stroke-width="8" fill="none" opacity="0.12"/><path d="M144 353 Q179 338 226 317 Q307 277 352 252 Q414 211 440 188 Q461 157 458 142 Q428 129 399 127 Q330 136 285 146 Q204 174 156 196 Q97 235 70 259 Q51 302 53 325 Q68 344 92 360 Q127 373 168 381 Q246 384 293 378 Q368 360 405 343 Q448 308 460 284 Q454 242 436 217 Q407 194 372 173 Q297 146 248 134 Q172 127 129 129 Q77 143 58 157 Q52 189 62 212 Q105 254 141 279 Q214 318 263 339 Q342 366 382 377 Q435 384 453 382 Q460 369 449 354 Q426 336 394 315 Q327 275 278 249 Q200 209 154 185 Q95 155 68 141 Q51 128 54 127 Q70 131 94 139 Q157 164 202 183 Q280 220 329 246 Q396 288 428 312 Q457 346 461 362 Q441 380 416 384 Q381 383 341 378 Q261 358 212 341 Q141 307 101 281 Q62 239 51 216 Q59 178 78 159 Q107 145 143 134 Q219 127 266 129 Q346 144 385 158 Q436 191 455 215 Q459 256 448 280 Q424 305 392 327 Q324 357 276 371 Q196 383 152 384 Q92 375 67 363 Q51 334 55 311 Q71 289 98 264 Q160 222 206 198 Q284 165 332 148 Q399 131 429 127 Q458 132 461 140 Q451 154 432 172 Q378 208 336 232 Q257 275 208 298 Q137 335 100 353 Q61 375 51 382 Q60 383 79 377" stroke="url(#g0)" stroke-linecap="round" stroke-linejoin="round" stroke-width="21" fill="none" opacity="0.35" filter="url(#softGlow)"/><path d="M144 353 Q179 338 226 317 Q307 277 352 252 Q414 211 440 188 Q461 157 458 142 Q428 129 399 127 Q330 136 285 146 Q204 174 156 196 Q97 235 70 259 Q51 302 53 325 Q68 344 92 360 Q127 373 168 381 Q246 384 293 378 Q368 360 405 343 Q448 308 460 284 Q454 242 436 217 Q407 194 372 173 Q297 146 248 134 Q172 127 129 129 Q77 143 58 157 Q52 189 62 212 Q105 254 141 279 Q214 318 263 339 Q342 366 382 377 Q435 384 453 382 Q460 369 449 354 Q426 336 394 315 Q327 275 278 249 Q200 209 154 185 Q95 155 68 141 Q51 128 54 127 Q70 131 94 139 Q157 164 202 183 Q280 220 329 246 Q396 288 428 312 Q457 346 461 362 Q441 380 416 384 Q381 383 341 378 Q261 358 212 341 Q141 307 101 281 Q62 239 51 216 Q59 178 78 159 Q107 145 143 134 Q219 127 266 129 Q346 144 385 158 Q436 191 455 215 Q459 256 448 280 Q424 305 392 327 Q324 357 276 371 Q196 383 152 384 Q92 375 67 363 Q51 334 55 311 Q71 289 98 264 Q160 222 206 198 Q284 165 332 148 Q399 131 429 127 Q458 132 461 140 Q451 154 432 172 Q378 208 336 232 Q257 275 208 298 Q137 335 100 353 Q61 375 51 382 Q60 383 79 377" stroke="url(#g0)" stroke-linecap="round" stroke-linejoin="round" stroke-width="3" fill="none" opacity=".95"/></svg>