<svg viewBox="0 0 512 512" xmlns="http://www.w3.org/2000/svg"><!-- Token #1015 | Rose Gold | Common --><defs><linearGradient id="g0"><stop offset="0%" stop-color="#ffbfcc"/><stop offset="100%" stop-color="#ffc9d7"/></linearGradient><filter id="softGlow" x="-30%" y="-30%" width="160%" height="160%"><feGaussianBlur stdDeviation="9.333333333333334"/></filter><pattern id="hatch" width="6" height="6" patternUnits="userSpaceOnUse" patternTransform="rotate(15)"><path d="M0 0 L0 6" stroke="#000" stroke-opacity=".05" stroke-width="1"/></pattern></defs><rect width="512" height="512" fill="#22161c"/><rect width="512" height="512" fill="url(#hatch)" opacity=".06"/><path d="M170 314 Q186 296 210 272 Q257 231 286 208 Q327 174 344 158 Q359 138 358 132 Q338 134 318 140 Q293 153 264 168 Q218 199 192 224 Q162 264 152 288 Q154 324 166 342 Q198 366 224 374 Q272 378 298 374 Q336 357 352 342 Q359 310 354 286 Q329 246 306 222 Q259 186 230 166 Q189 144 168 136 Q151 132 150 136 Q169 153 188 168 Q229 201 258 224 Q304 264 328 288 Q353 324 360 344 Q352 367 338 374 Q317 378 292 378 Q245 365 216 352 Q179 323 160 300 Q150 262 154 236 Q176 199 198 178 Q244 151 272 140 Q316 132 338 132 Q358 145 360 158 Q353 175 340 196 Q304 233 278 256 Q231 297 204 320 Q169 349 156 364 Q151 377 160 380 Q174 376 194 368 Q239 346 268 328 Q313 292 334 268 Q356 228 360 204 Q348 172 330 154 Q291 137 262 132 Q217 134 192 142 Q162 165 152 182 Q155 218 166 242 Q200 283 226 306 Q273 340 300 356 Q336 373 352 378 Q340 355 320 340 Q277 307 248 284 Q204 243 180 218 Q155 183 150 164 Q159 143 174 134 Q196 132 222 132 Q268 146 296 160 Q334 190 350 212 Q360 252 354 276 Q331 314 308 334 Q263 360 234 372 Q190 378 170 378 Q152 364 150 350 Q158 332 168 318" stroke="url(#g0)" stroke-linecap="round" stroke-linejoin="round" stroke-width="8" fill="none" opacity="0.12"/><path d="M408 236 Q410 250 404 268 Q367 296 334 312 Q267 339 224 352 Q160 373 130 382 Q102 395 100 400 Q111 403 132 404 Q186 401 226 396 Q296 383 336 374 Q386 355 404 342 Q408 315 396 300 Q371 282 340 264 Q273 235 230 218 Q165 191 134 174 Q103 152 100 140 Q120 123 146 116 Q180 111 218 108 Q291 106 330 108 Q382 116 402 124 Q409 139 398 152 Q376 165 346 180 Q280 206 236 224 Q172 252 138 270 Q105 299 100 314 Q106 330 124 344 Q152 358 186 370 Q255 387 298 394 Q360 401 388 404 Q409 403 408 398 Q394 394 370 386 Q314 370 274 358 Q201 335 164 320 Q118 292 102 274 Q105 245 120 228 Q147 211 180 196 Q249 169 290 156 Q353 136 382 126 Q408 114 410 110 Q398 107 376 106 Q320 110 280 114 Q208 127 170 136 Q121 156 104 170 Q103 196 116 214 Q142 230 174 248 Q241 277 284 294 Q349 321 380 336 Q407 360 410 370 Q387 387 362 394 Q298 401 258 404 Q189 403 152 398 Q112 388 100 380 Q109 360 128 348 Q158 333 194 318 Q264 291 306 274 Q365 244 392 226 Q410 198 406 182 Q391 168 366 154 Q331 142 292 132 Q221 118 182 112 Q129 107 108 106 Q101 111 110 114 Q133 122 164 132 Q229 150 272 162 Q338 187 370 204" stroke="url(#g0)" stroke-linecap="round" stroke-linejoin="round" stroke-width="10" fill="none" opacity="0.18"/><path d="M282 322 Q314 302 348 276 Q390 231 402 206 Q396 167 380 148 Q330 127 294 120 Q226 120 186 128 Q136 151 116 170 Q107 209 116 236 Q156 280 188 304 Q255 344 296 362 Q353 383 380 390 Q402 389 402 382 Q375 359 346 340 Q284 299 244 274 Q181 230 148 204 Q114 165 106 148 Q120 126 142 120 Q172 119 206 122 Q275 141 316 158 Q368 194 392 220 Q403 264 396 290 Q378 316 352 338 Q292 368 250 382 Q185 391 154 390 Q116 378 106 364 Q110 346 122 324 Q167 281 202 254 Q268 211 308 186 Q364 152 388 136 Q403 121 398 118 Q365 125 334 138 Q272 165 230 188 Q168 229 140 256 Q110 300 106 324 Q115 345 134 364 Q162 378 196 388 Q264 391 304 388 Q359 368 386 352 Q403 314 400 290 Q369 245 340 218 Q279 179 238 158 Q174 132 142 122 Q112 119 106 122 Q124 143 148 160 Q203 196 242 220 Q310 266 346 294 Q387 332 402 354 Q398 378 382 388 Q356 392 324 390 Q257 376 216 362 Q157 329 130 306 Q108 261 108 234 Q134 192 164 168 Q223 140 262 128 Q328 118 362 120 Q395 134 404 148 Q391 182 370 206 Q316 249 276 276 Q209 320 172 342 Q127 370 110 382 Q111 392 124 390 Q147 383 180 372 Q244 343 272 328" stroke="url(#g0)" stroke-linecap="round" stroke-linejoin="round" stroke-width="12" fill="none" opacity="0.24"/><path d="M409 61 Q427 75 440 99 Q427 160 403 204 Q338 282 291 328 Q207 394 160 424 Q101 453 79 456 Q75 436 88 412 Q117 377 155 337 Q235 259 285 212 Q362 141 399 105 Q435 67 440 56 Q416 65 386 82 Q314 135 265 174 Q182 252 136 301 Q88 371 73 406 Q81 445 102 455 Q135 454 177 442 Q260 399 309 363 Q382 289 414 243 Q439 167 437 127 Q402 78 367 61 Q288 58 240 69 Q159 113 119 150 Q79 224 71 268 Q90 346 118 386 Q185 433 236 450 Q319 453 364 441 Q418 397 436 361 Q434 286 416 240 Q359 165 313 124 Q229 77 181 60 Q114 58 86 70 Q72 114 79 150 Q124 225 162 271 Q245 347 294 387 Q370 435 406 451 Q437 453 439 441 Q426 417 401 385 Q337 316 288 270 Q204 192 158 150 Q99 93 78 69 Q119 78 156 105 Q238 168 287 212 Q364 290 401 335 Q436 400 440 428 Q414 454 385 455 Q343 445 297 426 Q212 371 164 328 Q103 252 80 204 Q74 135 86 100 Q137 64 180 55 Q263 67 312 87 Q383 141 415 183 Q439 260 436 307 Q400 378 365 410 Q287 448 236 456 Q158 444 119 424 Q78 368 71 328 Q91 250 120 202 Q189 133 235 100 Q322 63 366 55" stroke="url(#g0)" stroke-linecap="round" stroke-linejoin="round" stroke-width="24" fill="none" opacity="0.42" filter="url(#softGlow)"/><path d="M409 61 Q427 75 440 99 Q427 160 403 204 Q338 282 291 328 Q207 394 160 424 Q101 453 79 456 Q75 436 88 412 Q117 377 155 337 Q235 259 285 212 Q362 141 399 105 Q435 67 440 56 Q416 65 386 82 Q314 135 265 174 Q182 252 136 301 Q88 371 73 406 Q81 445 102 455 Q135 454 177 442 Q260 399 309 363 Q382 289 414 243 Q439 167 437 127 Q402 78 367 61 Q288 58 240 69 Q159 113 119 150 Q79 224 71 268 Q90 346 118 386 Q185 433 236 450 Q319 453 364 441 Q418 397 436 361 Q434 286 416 240 Q359 165 313 124 Q229 77 181 60 Q114 58 86 70 Q72 114 79 150 Q124 225 162 271 Q245 347 294 387 Q370 435 406 451 Q437 453 439 441 Q426 417 401 385 Q337 316 288 270 Q204 192 158 150 Q99 93 78 69 Q119 78 156 105 Q238 168 287 212 Q364 290 401 335 Q436 400 440 428 Q414 454 385 455 Q343 445 297 426 Q212 371 164 328 Q103 252 80 204 Q74 135 86 100 Q137 64 180 55 Q263 67 312 87 Q383 141 415 183 Q439 260 436 307 Q400 378 365 410 Q287 448 236 456 Q158 444 119 424 Q78 368 71 328 Q91 250 120 202 Q189 133 235 100 Q322 63 366 55" stroke="url(#g0)" stroke-linecap="round" stroke-linejoin="round" stroke-width="3" fill="none" opacity=".95"/></svg>