<svg viewBox="0 0 512 512" xmlns="http://www.w3.org/2000/svg"><!-- Token #1016 | Aurora Borealis | Common --><defs><linearGradient id="g0"><stop offset="0%" stop-color="#1ee3ba"/><stop offset="100%" stop-color="#e721e7"/></linearGradient><filter id="softGlow" x="-30%" y="-30%" width="160%" height="160%"><feGaussianBlur stdDeviation="12"/></filter><pattern id="hatch" width="6" height="6" patternUnits="userSpaceOnUse" patternTransform="rotate(15)"><path d="M0 0 L0 6" stroke="#000" stroke-opacity=".05" stroke-width="1"/></pattern></defs><rect width="512" height="512" fill="#070714"/><rect width="512" height="512" fill="url(#hatch)" opacity=".06"/><path d="M200 364 Q227 363 262 362 Q320 359 350 356 Q388 349 400 344 Q404 335 396 330 Q379 323 354 316 Q304 303 270 294 Q211 282 178 274 Q135 260 116 250 Q104 236 108 228 Q119 220 138 212 Q165 205 196 196 Q253 184 288 178 Q341 170 368 164 Q398 157 406 154 Q399 149 384 148 Q345 146 314 146 Q256 148 220 150 Q168 153 140 158 Q112 164 104 170 Q112 179 126 186 Q148 192 176 200 Q230 213 266 220 Q323 234 354 242 Q388 257 402 266 Q404 279 396 288 Q377 295 354 304 Q301 316 268 324 Q209 334 176 340 Q133 347 116 352 Q104 357 108 360 Q122 362 140 364 Q188 364 220 364 Q279 361 312 358 Q362 354 384 350 Q404 342 406 336 Q398 330 382 324 Q360 318 334 310 Q278 297 240 288 Q185 275 156 268 Q120 252 108 244 Q106 231 116 222 Q135 214 158 206 Q210 193 244 186 Q303 176 338 170 Q378 162 394 158 Q406 153 400 150 Q388 148 368 146 Q340 146 310 146 Q252 148 216 150 Q164 155 138 158 Q111 165 104 170 Q113 180 128 186 Q151 193 180 200 Q236 214 272 222 Q326 235 356 244 Q391 259 402 266 Q402 281 392 288 Q358 302 330 310 Q275 322 238 328 Q182 338 154 344 Q119 351 108 354 Q108 359 118 362 Q137 363 162 364" stroke="url(#g0)" stroke-linecap="round" stroke-linejoin="round" stroke-width="8" fill="none" opacity="0.12"/><path d="M460 176 Q458 118 455 53 Q447 -14 440 -29 Q427 -5 418 34 Q401 139 387 211 Q367 342 353 411 Q329 502 314 532 Q287 534 270 507 Q255 462 239 402 Q213 278 197 200 Q171 84 157 27 Q135 -24 123 -29 Q111 -10 98 28 Q89 83 80 150 Q68 281 62 353 Q55 463 52 510 Q51 540 51 532 Q55 471 59 411 Q69 292 76 210 Q90 93 100 33 Q120 -21 132 -30 Q146 -14 160 22 Q174 73 188 140 Q216 268 231 344 Q257 454 273 503 Q299 539 316 535 Q331 508 346 461 Q369 353 382 276 Q402 150 414 80 Q429 0 437 -26 Q448 -18 452 14 Q457 65 459 130 Q461 254 460 335 Q456 446 451 495 Q442 538 434 537 Q426 512 417 471 Q399 364 386 290 Q365 159 351 91 Q327 6 312 -24 Q284 -20 269 6 Q253 56 237 118 Q212 241 194 319 Q169 436 155 489 Q133 537 121 539 Q101 493 90 439 Q77 327 69 251 Q60 123 55 58 Q52 -11 51 -29 Q53 -9 54 28 Q62 131 68 206 Q80 333 88 406 Q106 497 118 530 Q138 536 151 512 Q165 469 180 408 Q207 287 222 210 Q249 89 265 31 Q290 -22 308 -29 Q334 9 348 57 Q371 167 383 245 Q404 372 414 438 Q430 515 438 538 Q448 525 453 493 Q459 396 460 325" stroke="url(#g0)" stroke-linecap="round" stroke-linejoin="round" stroke-width="27" fill="none" opacity="0.47" filter="url(#softGlow)"/><path d="M460 176 Q458 118 455 53 Q447 -14 440 -29 Q427 -5 418 34 Q401 139 387 211 Q367 342 353 411 Q329 502 314 532 Q287 534 270 507 Q255 462 239 402 Q213 278 197 200 Q171 84 157 27 Q135 -24 123 -29 Q111 -10 98 28 Q89 83 80 150 Q68 281 62 353 Q55 463 52 510 Q51 540 51 532 Q55 471 59 411 Q69 292 76 210 Q90 93 100 33 Q120 -21 132 -30 Q146 -14 160 22 Q174 73 188 140 Q216 268 231 344 Q257 454 273 503 Q299 539 316 535 Q331 508 346 461 Q369 353 382 276 Q402 150 414 80 Q429 0 437 -26 Q448 -18 452 14 Q457 65 459 130 Q461 254 460 335 Q456 446 451 495 Q442 538 434 537 Q426 512 417 471 Q399 364 386 290 Q365 159 351 91 Q327 6 312 -24 Q284 -20 269 6 Q253 56 237 118 Q212 241 194 319 Q169 436 155 489 Q133 537 121 539 Q101 493 90 439 Q77 327 69 251 Q60 123 55 58 Q52 -11 51 -29 Q53 -9 54 28 Q62 131 68 206 Q80 333 88 406 Q106 497 118 530 Q138 536 151 512 Q165 469 180 408 Q207 287 222 210 Q249 89 265 31 Q290 -22 308 -29 Q334 9 348 57 Q371 167 383 245 Q404 372 414 438 Q430 515 438 538 Q448 525 453 493 Q459 396 460 325" stroke="url(#g0)" stroke-linecap="round" stroke-linejoin="round" stroke-width="3" fill="none" opacity=".95"/></svg>