<svg viewBox="0 0 512 512" xmlns="http://www.w3.org/2000/svg"><!-- Token #1017 | Matrix Green | Common --><defs><linearGradient id="g0"><stop offset="0%" stop-color="#00ff37"/><stop offset="100%" stop-color="#009708"/></linearGradient><filter id="softGlow" x="-30%" y="-30%" width="160%" height="160%"><feGaussianBlur stdDeviation="12.666666666666668"/></filter><pattern id="hatch" width="6" height="6" patternUnits="userSpaceOnUse" patternTransform="rotate(15)"><path d="M0 0 L0 6" stroke="#000" stroke-opacity=".05" stroke-width="1"/></pattern></defs><rect width="512" height="512" fill="#080d08"/><rect width="512" height="512" fill="url(#hatch)" opacity=".06"/><path d="M300 224 Q276 218 248 212 Q201 201 176 194 Q147 186 136 180 Q134 174 140 170 Q155 167 174 164 Q217 162 244 160 Q292 160 318 160 Q354 163 368 166 Q378 169 374 174 Q364 177 350 182 Q311 190 284 196 Q236 206 208 212 Q168 224 150 232 Q134 244 132 252 Q146 263 162 270 Q199 283 226 290 Q274 301 302 308 Q343 317 360 324 Q376 331 378 336 Q371 339 360 342 Q326 346 300 348 Q254 350 226 350 Q182 349 160 348 Q138 344 132 342 Q139 335 150 332 Q184 324 210 318 Q256 308 284 302 Q328 290 350 284 Q372 271 378 264 Q371 251 358 244 Q326 231 300 224 Q253 212 226 206 Q181 196 160 190 Q138 182 132 178 Q134 173 142 170 Q158 167 176 164 Q219 161 248 160 Q295 160 322 160 Q356 163 370 166 Q378 171 374 174 Q363 178 346 182 Q308 191 280 196 Q233 208 206 214 Q166 224 148 232 Q133 245 132 252 Q139 260 152 266 Q171 274 194 282 Q239 294 268 300 Q315 310 338 316 Q366 326 376 330 Q376 337 366 340 Q352 343 332 346 Q288 349 260 350 Q214 350 186 350 Q153 347 140 344 Q148 332 164 328 Q204 318 230 312 Q280 302 306 296 Q344 285 362 276 Q377 265 376 258 Q370 251 356 244 Q338 235 314 228" stroke="url(#g0)" stroke-linecap="round" stroke-linejoin="round" stroke-width="8" fill="none" opacity="0.12"/><path d="M153 187 Q170 223 191 270 Q227 342 247 380 Q285 427 308 442 Q343 446 363 435 Q383 412 402 381 Q434 315 450 271 Q474 198 487 154 Q506 100 516 77 Q535 85 537 108 Q535 169 531 211 Q522 286 515 330 Q499 392 487 421 Q463 446 448 448 Q420 426 402 402 Q370 342 347 300 Q312 224 291 180 Q255 118 233 90 Q195 66 174 63 Q140 86 121 110 Q88 171 71 211 Q46 287 31 333 Q12 394 2 421 Q-12 446 -18 447 Q-22 438 -25 419 Q-25 390 -24 353 Q-18 282 -13 237 Q0 165 9 128 Q30 83 44 67 Q70 66 86 79 Q104 103 122 132 Q159 200 179 246 Q214 318 236 361 Q273 414 297 436 Q332 448 352 442 Q372 425 392 398 Q424 339 441 297 Q467 220 480 175 Q500 117 511 88 Q524 65 529 64 Q535 87 537 113 Q534 173 531 217 Q521 291 514 336 Q498 396 484 423 Q461 447 446 447 Q430 436 413 417 Q379 363 358 323 Q325 250 303 203 Q267 137 245 103 Q207 71 185 63 Q151 76 131 95 Q99 149 80 188 Q53 264 39 308 Q18 375 7 408 Q-8 440 -15 448 Q-22 436 -25 416 Q-24 362 -22 323 Q-14 247 -8 200 Q7 136 17 104 Q42 70 56 63 Q82 76 100 96 Q134 151 148 178" stroke="url(#g0)" stroke-linecap="round" stroke-linejoin="round" stroke-width="28" fill="none" opacity="0.49" filter="url(#softGlow)"/><path d="M153 187 Q170 223 191 270 Q227 342 247 380 Q285 427 308 442 Q343 446 363 435 Q383 412 402 381 Q434 315 450 271 Q474 198 487 154 Q506 100 516 77 Q535 85 537 108 Q535 169 531 211 Q522 286 515 330 Q499 392 487 421 Q463 446 448 448 Q420 426 402 402 Q370 342 347 300 Q312 224 291 180 Q255 118 233 90 Q195 66 174 63 Q140 86 121 110 Q88 171 71 211 Q46 287 31 333 Q12 394 2 421 Q-12 446 -18 447 Q-22 438 -25 419 Q-25 390 -24 353 Q-18 282 -13 237 Q0 165 9 128 Q30 83 44 67 Q70 66 86 79 Q104 103 122 132 Q159 200 179 246 Q214 318 236 361 Q273 414 297 436 Q332 448 352 442 Q372 425 392 398 Q424 339 441 297 Q467 220 480 175 Q500 117 511 88 Q524 65 529 64 Q535 87 537 113 Q534 173 531 217 Q521 291 514 336 Q498 396 484 423 Q461 447 446 447 Q430 436 413 417 Q379 363 358 323 Q325 250 303 203 Q267 137 245 103 Q207 71 185 63 Q151 76 131 95 Q99 149 80 188 Q53 264 39 308 Q18 375 7 408 Q-8 440 -15 448 Q-22 436 -25 416 Q-24 362 -22 323 Q-14 247 -8 200 Q7 136 17 104 Q42 70 56 63 Q82 76 100 96 Q134 151 148 178" stroke="url(#g0)" stroke-linecap="round" stroke-linejoin="round" stroke-width="3" fill="none" opacity=".95"/></svg>