<svg viewBox="0 0 512 512" xmlns="http://www.w3.org/2000/svg"><!-- Token #1006 | Golden Hour | Common --><defs><linearGradient id="g0"><stop offset="0%" stop-color="#fde20f"/><stop offset="100%" stop-color="#fdb00f"/></linearGradient><filter id="softGlow" x="-30%" y="-30%" width="160%" height="160%"><feGaussianBlur stdDeviation="8.333333333333334"/></filter><pattern id="hatch" width="6" height="6" patternUnits="userSpaceOnUse" patternTransform="rotate(15)"><path d="M0 0 L0 6" stroke="#000" stroke-opacity=".05" stroke-width="1"/></pattern></defs><rect width="512" height="512" fill="#201b16"/><rect width="512" height="512" fill="url(#hatch)" opacity=".06"/><path d="M300 288 Q303 297 304 308 Q301 327 298 336 Q289 350 282 356 Q273 361 264 364 Q247 367 238 366 Q229 363 222 360 Q212 351 208 344 Q206 335 206 324 Q209 314 212 302 Q221 282 228 268 Q243 247 254 234 Q269 212 278 200 Q290 183 296 172 Q303 160 304 154 Q301 147 298 144 Q288 144 282 146 Q266 152 256 156 Q241 170 232 178 Q219 196 214 208 Q207 229 206 242 Q209 264 212 278 Q222 298 228 310 Q245 328 254 338 Q269 350 278 356 Q291 364 296 366 Q303 366 304 364 Q301 358 298 352 Q292 345 286 338 Q271 320 262 310 Q247 289 238 276 Q224 254 216 242 Q209 220 206 208 Q207 189 210 178 Q214 169 220 162 Q233 152 242 148 Q257 144 268 144 Q281 147 288 150 Q299 160 302 168 Q304 177 304 186 Q301 198 298 210 Q288 230 280 242 Q265 265 256 278 Q240 299 230 310 Q223 322 216 332 Q209 346 206 354 Q207 361 210 366 Q214 367 220 366 Q228 365 236 362 Q245 358 254 352 Q271 339 280 330 Q292 312 298 300 Q303 279 304 266 Q301 245 298 232 Q287 210 280 198 Q265 181 254 172 Q239 158 230 152 Q218 145 212 144 Q207 144 206 146 Q209 152 212 158 Q218 166 226 174 Q239 191 248 202 Q265 223 274 234 Q287 258 294 272" stroke="url(#g0)" stroke-linecap="round" stroke-linejoin="round" stroke-width="8" fill="none" opacity="0.12"/><path d="M396 174 Q380 169 360 168 Q314 178 284 188 Q231 216 202 234 Q156 269 134 288 Q106 316 98 328 Q97 341 104 342 Q118 338 136 330 Q178 306 206 288 Q259 255 290 234 Q337 205 362 190 Q395 172 408 168 Q414 173 412 180 Q402 194 386 210 Q350 241 322 262 Q271 296 240 312 Q191 333 162 340 Q126 341 110 336 Q97 315 96 300 Q109 268 124 248 Q161 215 188 198 Q240 177 270 170 Q320 169 348 176 Q384 195 400 210 Q413 243 414 264 Q400 296 384 312 Q348 333 320 340 Q270 341 238 334 Q188 315 162 298 Q126 267 110 246 Q97 214 96 198 Q110 177 126 170 Q162 169 190 176 Q241 195 272 212 Q322 243 348 264 Q385 296 402 314 Q414 333 414 340 Q400 341 384 334 Q347 315 318 298 Q268 266 238 246 Q187 213 160 196 Q124 177 108 170 Q103 186 114 200 Q148 231 174 252 Q222 286 252 302 Q305 327 334 336 Q373 342 394 338 Q412 324 416 308 Q412 292 404 272 Q377 238 354 218 Q308 191 278 180 Q225 169 196 168 Q152 179 128 192 Q105 219 96 238 Q98 273 106 292 Q134 319 158 332 Q202 341 234 342 Q285 331 316 318 Q360 290 382 270 Q406 237 414 218 Q412 191 404 178" stroke="url(#g0)" stroke-linecap="round" stroke-linejoin="round" stroke-width="10" fill="none" opacity="0.18"/><path d="M148 204 Q159 207 168 210 Q179 211 192 214 Q205 215 222 218 Q249 223 266 226 Q293 233 308 236 Q330 242 342 246 Q354 253 360 258 Q362 263 360 268 Q351 273 342 278 Q330 281 318 284 Q293 289 278 292 Q250 297 232 300 Q207 302 192 304 Q172 305 162 306 Q152 306 148 306 Q160 302 168 300 Q180 299 192 296 Q217 293 232 290 Q261 285 278 280 Q304 275 318 272 Q338 265 348 260 Q359 254 362 250 Q362 246 360 242 Q350 237 340 232 Q322 227 308 224 Q282 219 266 216 Q237 211 220 210 Q197 207 184 206 Q165 204 156 204 Q151 204 148 204 Q160 208 170 210 Q180 211 192 214 Q218 217 234 220 Q262 226 280 230 Q305 235 318 238 Q339 245 348 250 Q359 256 362 260 Q362 264 360 268 Q349 274 340 278 Q321 283 306 286 Q281 291 266 294 Q235 299 220 300 Q195 303 182 304 Q165 306 156 306 Q151 306 148 306 Q161 302 170 300 Q182 299 194 296 Q219 293 234 290 Q264 283 280 280 Q306 275 320 270 Q339 265 348 260 Q359 253 362 250 Q361 243 356 240 Q349 236 340 232 Q320 227 306 224 Q280 218 262 216 Q235 211 220 210 Q194 207 182 206 Q163 204 156 204 Q149 204 148 204" stroke="url(#g0)" stroke-linecap="round" stroke-linejoin="round" stroke-width="12" fill="none" opacity="0.24"/><path d="M387 311 Q383 249 372 175 Q345 73 325 34 Q285 20 259 39 Q232 84 207 144 Q171 265 152 338 Q131 440 124 478 Q145 426 160 365 Q194 247 219 171 Q263 72 287 34 Q328 20 349 42 Q365 86 378 145 Q388 267 387 338 Q375 441 362 478 Q331 491 307 468 Q283 424 257 364 Q214 242 190 171 Q157 72 141 32 Q126 87 132 149 Q155 269 174 342 Q212 441 237 480 Q282 491 306 468 Q329 422 349 364 Q375 240 384 167 Q388 70 384 31 Q366 21 350 44 Q330 89 307 149 Q265 271 237 346 Q197 442 175 480 Q145 490 132 466 Q126 422 123 361 Q130 238 140 166 Q168 68 189 31 Q230 21 256 44 Q282 90 307 152 Q344 276 361 347 Q382 444 387 481 Q366 420 349 357 Q314 237 290 166 Q246 66 219 29 Q181 21 161 46 Q145 93 132 152 Q124 278 124 348 Q137 445 152 482 Q183 489 205 466 Q231 418 257 357 Q300 237 324 161 Q357 65 371 29 Q385 94 378 156 Q354 278 335 352 Q296 448 271 483 Q228 489 203 464 Q180 416 159 353 Q136 235 126 158 Q124 63 128 28 Q147 23 164 48 Q185 96 208 160 Q250 280 275 352 Q318 449 339 484 Q367 489 380 462 Q387 414 388 353" stroke="url(#g0)" stroke-linecap="round" stroke-linejoin="round" stroke-width="23" fill="none" opacity="0.38999999999999996" filter="url(#softGlow)"/><path d="M387 311 Q383 249 372 175 Q345 73 325 34 Q285 20 259 39 Q232 84 207 144 Q171 265 152 338 Q131 440 124 478 Q145 426 160 365 Q194 247 219 171 Q263 72 287 34 Q328 20 349 42 Q365 86 378 145 Q388 267 387 338 Q375 441 362 478 Q331 491 307 468 Q283 424 257 364 Q214 242 190 171 Q157 72 141 32 Q126 87 132 149 Q155 269 174 342 Q212 441 237 480 Q282 491 306 468 Q329 422 349 364 Q375 240 384 167 Q388 70 384 31 Q366 21 350 44 Q330 89 307 149 Q265 271 237 346 Q197 442 175 480 Q145 490 132 466 Q126 422 123 361 Q130 238 140 166 Q168 68 189 31 Q230 21 256 44 Q282 90 307 152 Q344 276 361 347 Q382 444 387 481 Q366 420 349 357 Q314 237 290 166 Q246 66 219 29 Q181 21 161 46 Q145 93 132 152 Q124 278 124 348 Q137 445 152 482 Q183 489 205 466 Q231 418 257 357 Q300 237 324 161 Q357 65 371 29 Q385 94 378 156 Q354 278 335 352 Q296 448 271 483 Q228 489 203 464 Q180 416 159 353 Q136 235 126 158 Q124 63 128 28 Q147 23 164 48 Q185 96 208 160 Q250 280 275 352 Q318 449 339 484 Q367 489 380 462 Q387 414 388 353" stroke="url(#g0)" stroke-linecap="round" stroke-linejoin="round" stroke-width="3" fill="none" opacity=".95"/></svg>