<svg viewBox="0 0 512 512" xmlns="http://www.w3.org/2000/svg"><!-- Token #1002 | Aurora Borealis | Common --><defs><linearGradient id="g0"><stop offset="0%" stop-color="#00ffcf"/><stop offset="100%" stop-color="#ff00ff"/></linearGradient><filter id="softGlow" x="-30%" y="-30%" width="160%" height="160%"><feGaussianBlur stdDeviation="12.333333333333332"/></filter><pattern id="hatch" width="6" height="6" patternUnits="userSpaceOnUse" patternTransform="rotate(15)"><path d="M0 0 L0 6" stroke="#000" stroke-opacity=".05" stroke-width="1"/></pattern></defs><rect width="512" height="512" fill="#0b0b1b"/><rect width="512" height="512" fill="url(#hatch)" opacity=".06"/><path d="M418 166 Q412 166 400 166 Q360 172 330 178 Q267 191 232 202 Q171 222 142 236 Q107 259 94 272 Q98 296 110 308 Q132 319 160 328 Q218 338 254 344 Q318 345 350 344 Q392 334 408 328 Q415 312 410 300 Q392 288 368 272 Q317 250 278 236 Q217 214 180 202 Q131 185 110 178 Q107 166 126 168 Q171 176 206 182 Q270 199 308 210 Q361 233 388 246 Q413 270 416 284 Q411 296 398 308 Q376 319 348 328 Q290 339 254 344 Q190 345 158 342 Q116 334 100 328 Q95 310 102 300 Q135 277 162 264 Q222 239 258 226 Q320 206 352 194 Q394 179 410 172 Q391 167 366 170 Q313 180 276 190 Q213 208 178 220 Q130 243 108 256 Q94 280 96 292 Q108 306 126 316 Q154 326 184 334 Q247 343 286 344 Q343 343 374 340 Q406 329 416 320 Q416 310 408 298 Q389 285 366 272 Q312 249 274 234 Q211 212 176 200 Q129 184 108 176 Q94 167 96 166 Q108 166 128 168 Q175 176 212 184 Q274 200 312 212 Q365 235 390 248 Q414 272 416 286 Q401 306 382 318 Q334 332 298 338 Q236 344 198 346 Q144 341 120 336 Q96 323 94 314 Q100 302 114 288 Q138 275 166 262 Q225 238 264 224 Q324 204 356 192 Q396 178 412 172" stroke="url(#g0)" stroke-linecap="round" stroke-linejoin="round" stroke-width="8" fill="none" opacity="0.12"/><path d="M136 136 Q134 130 138 128 Q148 135 166 148 Q203 182 232 208 Q278 257 306 286 Q344 330 360 352 Q375 375 376 382 Q369 380 358 372 Q337 356 316 336 Q270 293 242 262 Q196 214 172 186 Q144 151 136 138 Q160 144 180 160 Q223 201 250 228 Q297 277 322 306 Q357 347 370 364 Q376 381 372 382 Q350 366 330 350 Q287 310 260 282 Q212 232 186 204 Q153 163 140 144 Q134 130 138 128 Q149 136 166 148 Q205 184 232 210 Q280 259 308 288 Q346 332 362 354 Q376 377 376 382 Q359 374 344 362 Q303 325 278 300 Q230 252 202 220 Q164 177 148 156 Q134 133 134 128 Q141 131 154 140 Q190 169 216 192 Q262 240 290 268 Q332 317 354 342 Q373 370 378 380 Q367 378 354 370 Q320 341 294 316 Q247 269 220 240 Q177 192 158 168 Q137 140 134 130 Q142 132 156 140 Q190 170 216 194 Q264 242 292 270 Q333 318 352 342 Q373 370 376 380 Q368 378 354 370 Q319 339 294 316 Q246 268 218 238 Q175 191 156 168 Q137 139 134 130 Q143 132 156 140 Q192 171 218 196 Q264 242 294 274 Q335 319 354 344 Q374 371 376 380 Q366 378 352 368 Q318 339 292 314 Q244 266 216 236 Q175 191 156 166" stroke="url(#g0)" stroke-linecap="round" stroke-linejoin="round" stroke-width="10" fill="none" opacity="0.18"/><path d="M407 246 Q399 218 386 186 Q362 136 347 109 Q317 75 298 58 Q265 44 245 42 Q212 51 193 61 Q163 93 147 115 Q124 163 112 195 Q97 250 91 283 Q86 337 86 366 Q92 410 98 431 Q114 457 125 466 Q149 469 165 463 Q183 453 201 437 Q234 403 253 378 Q288 326 307 294 Q337 239 355 204 Q380 153 392 125 Q409 87 417 67 Q424 48 426 42 Q422 46 417 54 Q410 69 401 86 Q382 126 366 156 Q340 207 322 238 Q290 297 269 328 Q237 378 217 404 Q186 438 167 454 Q141 468 126 469 Q108 460 99 448 Q92 431 88 410 Q86 365 88 334 Q96 283 104 246 Q122 193 135 163 Q161 115 179 91 Q209 61 229 50 Q263 42 282 44 Q314 59 333 75 Q361 111 376 136 Q397 187 407 219 Q419 277 424 308 Q426 361 424 388 Q415 428 407 446 Q389 464 375 469 Q350 465 333 456 Q301 430 281 407 Q248 363 229 334 Q196 279 178 244 Q150 192 134 158 Q114 114 104 90 Q92 61 87 49 Q92 52 99 64 Q116 97 128 121 Q151 168 169 200 Q198 256 217 288 Q251 343 271 373 Q304 414 322 436 Q351 459 367 467 Q390 468 401 462 Q416 440 421 422 Q426 381 425 352 Q418 300 412 265" stroke="url(#g0)" stroke-linecap="round" stroke-linejoin="round" stroke-width="27" fill="none" opacity="0.48" filter="url(#softGlow)"/><path d="M407 246 Q399 218 386 186 Q362 136 347 109 Q317 75 298 58 Q265 44 245 42 Q212 51 193 61 Q163 93 147 115 Q124 163 112 195 Q97 250 91 283 Q86 337 86 366 Q92 410 98 431 Q114 457 125 466 Q149 469 165 463 Q183 453 201 437 Q234 403 253 378 Q288 326 307 294 Q337 239 355 204 Q380 153 392 125 Q409 87 417 67 Q424 48 426 42 Q422 46 417 54 Q410 69 401 86 Q382 126 366 156 Q340 207 322 238 Q290 297 269 328 Q237 378 217 404 Q186 438 167 454 Q141 468 126 469 Q108 460 99 448 Q92 431 88 410 Q86 365 88 334 Q96 283 104 246 Q122 193 135 163 Q161 115 179 91 Q209 61 229 50 Q263 42 282 44 Q314 59 333 75 Q361 111 376 136 Q397 187 407 219 Q419 277 424 308 Q426 361 424 388 Q415 428 407 446 Q389 464 375 469 Q350 465 333 456 Q301 430 281 407 Q248 363 229 334 Q196 279 178 244 Q150 192 134 158 Q114 114 104 90 Q92 61 87 49 Q92 52 99 64 Q116 97 128 121 Q151 168 169 200 Q198 256 217 288 Q251 343 271 373 Q304 414 322 436 Q351 459 367 467 Q390 468 401 462 Q416 440 421 422 Q426 381 425 352 Q418 300 412 265" stroke="url(#g0)" stroke-linecap="round" stroke-linejoin="round" stroke-width="3" fill="none" opacity=".95"/></svg>