<svg viewBox="0 0 512 512" xmlns="http://www.w3.org/2000/svg"><!-- Token #1014 | Toxic Green | Common --><defs><linearGradient id="g0"><stop offset="0%" stop-color="#00ff00"/><stop offset="100%" stop-color="#69ff00"/></linearGradient><filter id="softGlow" x="-30%" y="-30%" width="160%" height="160%"><feGaussianBlur stdDeviation="8"/></filter><pattern id="hatch" width="6" height="6" patternUnits="userSpaceOnUse" patternTransform="rotate(15)"><path d="M0 0 L0 6" stroke="#000" stroke-opacity=".05" stroke-width="1"/></pattern></defs><rect width="512" height="512" fill="#0c1f0c"/><rect width="512" height="512" fill="url(#hatch)" opacity=".06"/><path d="M166 238 Q173 231 182 220 Q198 207 208 198 Q225 188 236 182 Q253 175 264 172 Q282 170 292 170 Q309 173 318 178 Q327 182 338 188 Q351 199 358 206 Q369 221 374 230 Q380 241 384 250 Q389 267 390 276 Q392 293 392 302 Q389 314 386 322 Q383 327 380 332 Q374 335 368 338 Q357 340 350 340 Q337 336 328 332 Q319 328 308 322 Q291 311 280 302 Q270 295 260 286 Q241 269 230 260 Q213 243 204 234 Q187 217 178 208 Q163 195 156 188 Q144 180 138 176 Q134 173 128 170 Q125 170 122 170 Q118 182 120 188 Q123 200 126 208 Q132 222 138 232 Q149 247 156 258 Q169 275 176 284 Q192 299 204 308 Q219 320 230 326 Q247 333 258 336 Q277 340 288 340 Q303 337 314 334 Q329 328 338 322 Q352 310 358 302 Q370 287 376 278 Q383 262 386 252 Q390 235 392 226 Q392 217 392 208 Q389 194 386 188 Q383 182 378 178 Q370 172 364 170 Q356 170 350 170 Q336 175 326 178 Q310 186 300 192 Q283 205 274 214 Q262 223 252 232 Q233 249 222 260 Q205 275 196 284 Q179 300 170 308 Q157 320 150 326 Q140 334 134 336 Q129 339 126 340 Q123 340 120 338 Q118 333 118 328 Q119 324 120 316 Q123 310 126 302 Q133 287 138 278 Q150 261 156 250" stroke="url(#g0)" stroke-linecap="round" stroke-linejoin="round" stroke-width="8" fill="none" opacity="0.12"/><path d="M156 254 Q167 265 182 280 Q212 302 230 312 Q263 324 282 328 Q314 329 330 326 Q353 313 364 304 Q376 282 380 270 Q379 245 374 230 Q359 208 348 198 Q321 186 304 182 Q273 181 252 184 Q222 197 202 206 Q175 228 162 242 Q143 267 136 280 Q130 302 132 312 Q139 324 148 328 Q159 330 172 328 Q190 324 206 316 Q238 299 258 286 Q289 263 308 248 Q335 225 348 212 Q368 195 374 188 Q379 183 380 180 Q374 184 368 188 Q358 197 346 208 Q320 228 304 242 Q271 267 252 282 Q220 302 200 314 Q175 325 160 330 Q149 330 140 328 Q131 319 130 310 Q133 298 138 286 Q152 263 164 248 Q190 224 208 212 Q239 194 258 186 Q290 180 310 180 Q326 184 342 190 Q362 204 370 216 Q379 239 380 252 Q374 277 368 290 Q350 310 336 318 Q308 328 290 330 Q257 326 238 320 Q207 306 190 294 Q164 271 152 258 Q138 233 132 218 Q131 199 134 192 Q141 184 150 180 Q160 180 174 182 Q203 192 220 202 Q254 220 272 234 Q304 259 322 274 Q347 296 360 308 Q374 322 378 328 Q369 322 360 314 Q340 298 324 284 Q296 261 274 246 Q244 223 224 210 Q193 193 178 186 Q154 180 144 180 Q133 188 130 196 Q131 205 134 218 Q141 231 150 244" stroke="url(#g0)" stroke-linecap="round" stroke-linejoin="round" stroke-width="10" fill="none" opacity="0.18"/><path d="M178 292 Q167 315 152 344 Q136 376 130 388 Q136 366 144 344 Q164 298 180 268 Q208 213 228 184 Q260 146 280 128 Q312 118 330 122 Q345 133 358 152 Q374 193 380 222 Q382 276 380 308 Q369 351 358 372 Q336 390 320 392 Q289 377 268 358 Q236 316 216 286 Q186 234 170 202 Q148 158 138 138 Q129 120 128 118 Q132 133 138 152 Q156 194 170 224 Q197 278 214 308 Q249 352 268 372 Q302 390 318 392 Q345 375 358 358 Q374 316 380 284 Q382 232 380 202 Q369 157 358 136 Q335 120 318 118 Q287 134 268 152 Q235 196 214 224 Q185 279 168 308 Q148 353 138 372 Q129 390 128 392 Q132 375 138 358 Q157 314 172 284 Q198 231 216 200 Q250 157 270 136 Q302 120 320 120 Q346 135 358 152 Q375 197 380 226 Q383 280 380 310 Q369 353 358 374 Q335 390 318 390 Q285 374 266 356 Q233 313 214 284 Q184 229 168 200 Q147 155 138 136 Q129 119 128 118 Q129 127 134 140 Q142 162 154 190 Q177 238 192 270 Q225 322 244 348 Q277 379 298 388 Q327 388 342 380 Q363 348 372 322 Q381 271 384 238 Q378 187 370 162 Q352 131 338 120 Q310 122 292 132 Q259 162 238 188 Q206 240 188 272" stroke="url(#g0)" stroke-linecap="round" stroke-linejoin="round" stroke-width="12" fill="none" opacity="0.24"/><path d="M412 130 Q437 120 460 109 Q439 105 407 113 Q338 133 290 149 Q206 182 159 204 Q93 245 64 268 Q43 307 43 330 Q73 362 103 379 Q175 399 221 406 Q305 411 352 408 Q419 395 447 383 Q469 355 467 336 Q453 314 428 291 Q368 251 320 227 Q237 187 188 167 Q116 137 81 123 Q47 107 41 102 Q59 103 83 107 Q146 125 191 138 Q275 170 323 190 Q398 230 429 253 Q464 293 470 318 Q452 351 428 369 Q392 385 350 396 Q271 408 219 411 Q141 405 102 398 Q56 377 43 360 Q48 328 67 305 Q119 265 161 242 Q244 201 295 178 Q371 148 411 130 Q456 112 468 104 Q463 101 444 104 Q392 118 347 130 Q267 158 216 177 Q139 215 100 239 Q55 280 43 303 Q48 339 67 358 Q97 376 135 389 Q210 405 264 410 Q344 409 388 403 Q442 385 462 370 Q468 340 457 319 Q435 296 404 272 Q330 231 280 206 Q200 172 150 152 Q88 126 61 114 Q42 103 45 101 Q61 103 86 108 Q151 126 196 141 Q282 172 329 192 Q401 232 436 257 Q466 297 470 319 Q449 353 423 372 Q360 393 313 403 Q229 410 179 410 Q110 400 76 389 Q45 363 41 345 Q50 326 69 302 Q126 262 168 238 Q249 199 300 176 Q377 145 404 134" stroke="url(#g0)" stroke-linecap="round" stroke-linejoin="round" stroke-width="22" fill="none" opacity="0.38" filter="url(#softGlow)"/><path d="M412 130 Q437 120 460 109 Q439 105 407 113 Q338 133 290 149 Q206 182 159 204 Q93 245 64 268 Q43 307 43 330 Q73 362 103 379 Q175 399 221 406 Q305 411 352 408 Q419 395 447 383 Q469 355 467 336 Q453 314 428 291 Q368 251 320 227 Q237 187 188 167 Q116 137 81 123 Q47 107 41 102 Q59 103 83 107 Q146 125 191 138 Q275 170 323 190 Q398 230 429 253 Q464 293 470 318 Q452 351 428 369 Q392 385 350 396 Q271 408 219 411 Q141 405 102 398 Q56 377 43 360 Q48 328 67 305 Q119 265 161 242 Q244 201 295 178 Q371 148 411 130 Q456 112 468 104 Q463 101 444 104 Q392 118 347 130 Q267 158 216 177 Q139 215 100 239 Q55 280 43 303 Q48 339 67 358 Q97 376 135 389 Q210 405 264 410 Q344 409 388 403 Q442 385 462 370 Q468 340 457 319 Q435 296 404 272 Q330 231 280 206 Q200 172 150 152 Q88 126 61 114 Q42 103 45 101 Q61 103 86 108 Q151 126 196 141 Q282 172 329 192 Q401 232 436 257 Q466 297 470 319 Q449 353 423 372 Q360 393 313 403 Q229 410 179 410 Q110 400 76 389 Q45 363 41 345 Q50 326 69 302 Q126 262 168 238 Q249 199 300 176 Q377 145 404 134" stroke="url(#g0)" stroke-linecap="round" stroke-linejoin="round" stroke-width="3" fill="none" opacity=".95"/></svg>