<svg viewBox="0 0 512 512" xmlns="http://www.w3.org/2000/svg"><!-- Token #1011 | Neon Flame | Legendary --><defs><linearGradient id="g0"><stop offset="0%" stop-color="#e19213"/><stop offset="50%" stop-color="#e1fb73"/><stop offset="100%" stop-color="#e1ff7e"/></linearGradient><filter id="softGlow" x="-30%" y="-30%" width="160%" height="160%"><feGaussianBlur stdDeviation="13"/></filter><pattern id="hatch" width="6" height="6" patternUnits="userSpaceOnUse" patternTransform="rotate(15)"><path d="M0 0 L0 6" stroke="#000" stroke-opacity=".05" stroke-width="1"/></pattern><pattern id="shimmer" width="4" height="4" patternUnits="userSpaceOnUse"><rect width="2" height="2" fill="#fff" opacity=".3"/></pattern></defs><rect width="512" height="512" fill="#0c313a"/><rect width="512" height="512" fill="url(#hatch)" opacity=".06"/><rect width="512" height="512" fill="url(#shimmer)" opacity=".1"/><path d="M312 276 Q313 260 314 242 Q314 210 316 192 Q314 167 314 154 Q311 140 310 134 Q303 136 300 144 Q297 153 292 164 Q286 190 282 206 Q275 238 270 256 Q263 289 258 306 Q250 333 246 348 Q238 365 234 372 Q227 378 222 378 Q219 374 214 366 Q211 357 208 346 Q204 319 202 304 Q199 272 196 252 Q196 221 196 204 Q196 177 196 162 Q198 145 200 138 Q201 133 204 132 Q212 147 216 156 Q221 181 226 196 Q232 225 238 246 Q245 276 248 296 Q257 324 262 340 Q270 359 274 368 Q281 377 286 378 Q291 373 296 366 Q299 356 302 344 Q307 319 308 304 Q312 270 314 252 Q314 220 314 202 Q314 175 314 160 Q312 144 310 136 Q307 132 306 132 Q303 138 298 144 Q293 162 290 176 Q283 202 278 222 Q271 252 266 270 Q259 303 254 320 Q247 345 242 356 Q235 371 230 376 Q223 378 220 374 Q213 363 210 352 Q205 329 202 312 Q199 282 198 264 Q196 231 196 212 Q196 185 196 170 Q197 150 198 142 Q201 133 204 132 Q206 135 210 140 Q213 148 216 158 Q221 181 226 198 Q233 228 238 246 Q245 279 250 298 Q257 325 262 342 Q270 361 274 370 Q279 375 282 378 Q289 375 294 370 Q299 355 302 342 Q307 317 308 298" stroke="url(#g0)" stroke-linecap="round" stroke-linejoin="round" stroke-width="8" fill="none" opacity="0.12"/><path d="M404 402 Q402 387 392 364 Q351 308 318 270 Q251 209 212 174 Q153 127 128 108 Q107 94 110 98 Q123 111 146 130 Q202 179 242 214 Q309 277 344 314 Q387 367 400 390 Q398 412 382 416 Q356 408 324 392 Q257 351 216 318 Q158 257 130 220 Q108 163 108 134 Q134 103 162 94 Q221 102 262 116 Q328 160 360 192 Q396 254 404 290 Q391 348 370 376 Q317 407 278 416 Q210 408 174 394 Q128 350 110 316 Q110 255 122 220 Q167 161 204 132 Q268 103 310 94 Q365 102 388 118 Q404 161 398 194 Q364 256 334 292 Q271 349 230 378 Q167 408 138 416 Q110 407 106 392 Q116 367 134 340 Q185 278 224 242 Q290 181 328 150 Q377 111 396 98 Q369 126 340 152 Q277 208 236 244 Q173 307 142 340 Q112 386 106 404 Q124 416 148 410 Q179 397 216 376 Q284 326 324 288 Q374 228 394 192 Q403 139 392 116 Q356 96 320 96 Q255 114 218 134 Q156 185 130 222 Q107 283 108 320 Q121 352 142 380 Q174 400 210 412 Q277 413 318 402 Q371 365 392 336 Q403 275 396 240 Q360 180 328 146 Q262 110 222 98 Q161 97 134 108 Q108 145 108 176 Q119 210 138 248 Q193 310 232 342 Q298 387 336 406 Q382 415 398 410" stroke="url(#g0)" stroke-linecap="round" stroke-linejoin="round" stroke-width="10" fill="none" opacity="0.18"/><path d="M362 403 Q369 411 376 418 Q386 425 390 426 Q394 424 397 420 Q400 414 401 405 Q402 387 400 374 Q397 348 393 329 Q386 299 380 279 Q370 246 362 225 Q349 194 338 175 Q322 148 312 133 Q294 113 283 103 Q263 92 251 87 Q233 87 222 88 Q204 98 192 106 Q176 125 166 138 Q153 165 145 182 Q133 213 127 233 Q120 266 116 286 Q112 319 110 336 Q110 364 111 378 Q114 399 118 408 Q126 420 131 424 Q143 425 149 423 Q164 413 174 404 Q190 386 200 372 Q218 346 229 328 Q249 298 260 277 Q279 243 290 223 Q309 192 320 174 Q336 146 345 132 Q359 112 367 102 Q379 91 384 87 Q392 87 396 89 Q399 94 400 101 Q402 111 401 121 Q400 145 398 160 Q392 190 386 209 Q377 242 371 261 Q359 295 350 314 Q334 343 324 361 Q307 385 296 397 Q277 412 265 419 Q246 425 235 426 Q218 421 206 415 Q188 401 178 389 Q163 366 154 350 Q141 322 134 302 Q125 269 120 249 Q114 216 112 197 Q110 167 110 150 Q112 127 114 115 Q121 99 125 92 Q134 87 141 86 Q153 91 162 96 Q178 112 188 122 Q205 146 215 162 Q236 192 247 210 Q265 243 276 263 Q295 297 307 316 Q324 345 334 361 Q349 386 357 397" stroke="url(#g0)" stroke-linecap="round" stroke-linejoin="round" stroke-width="28" fill="none" opacity="0.5" filter="url(#softGlow)"/><path d="M362 403 Q369 411 376 418 Q386 425 390 426 Q394 424 397 420 Q400 414 401 405 Q402 387 400 374 Q397 348 393 329 Q386 299 380 279 Q370 246 362 225 Q349 194 338 175 Q322 148 312 133 Q294 113 283 103 Q263 92 251 87 Q233 87 222 88 Q204 98 192 106 Q176 125 166 138 Q153 165 145 182 Q133 213 127 233 Q120 266 116 286 Q112 319 110 336 Q110 364 111 378 Q114 399 118 408 Q126 420 131 424 Q143 425 149 423 Q164 413 174 404 Q190 386 200 372 Q218 346 229 328 Q249 298 260 277 Q279 243 290 223 Q309 192 320 174 Q336 146 345 132 Q359 112 367 102 Q379 91 384 87 Q392 87 396 89 Q399 94 400 101 Q402 111 401 121 Q400 145 398 160 Q392 190 386 209 Q377 242 371 261 Q359 295 350 314 Q334 343 324 361 Q307 385 296 397 Q277 412 265 419 Q246 425 235 426 Q218 421 206 415 Q188 401 178 389 Q163 366 154 350 Q141 322 134 302 Q125 269 120 249 Q114 216 112 197 Q110 167 110 150 Q112 127 114 115 Q121 99 125 92 Q134 87 141 86 Q153 91 162 96 Q178 112 188 122 Q205 146 215 162 Q236 192 247 210 Q265 243 276 263 Q295 297 307 316 Q324 345 334 361 Q349 386 357 397" stroke="url(#g0)" stroke-linecap="round" stroke-linejoin="round" stroke-width="3" fill="none" opacity=".95"/></svg>