<svg viewBox="0 0 512 512" xmlns="http://www.w3.org/2000/svg"><!-- Token #1008 | Copper Wire | Common --><defs><linearGradient id="g0"><stop offset="0%" stop-color="#986333"/><stop offset="100%" stop-color="#d77f47"/></linearGradient><filter id="softGlow" x="-30%" y="-30%" width="160%" height="160%"><feGaussianBlur stdDeviation="8.666666666666666"/></filter><pattern id="hatch" width="6" height="6" patternUnits="userSpaceOnUse" patternTransform="rotate(15)"><path d="M0 0 L0 6" stroke="#000" stroke-opacity=".05" stroke-width="1"/></pattern></defs><rect width="512" height="512" fill="#0c0803"/><rect width="512" height="512" fill="url(#hatch)" opacity=".06"/><path d="M120 408 Q117 420 116 430 Q120 410 122 388 Q130 343 134 310 Q144 253 152 218 Q165 164 172 136 Q189 100 198 84 Q216 76 226 80 Q236 91 248 108 Q267 148 276 176 Q294 234 304 268 Q323 325 332 356 Q345 397 354 416 Q364 432 372 434 Q381 419 384 402 Q389 380 390 352 Q394 298 394 264 Q393 206 390 172 Q386 127 382 104 Q373 82 366 76 Q355 84 348 96 Q333 131 324 158 Q307 213 298 248 Q280 305 270 338 Q250 384 240 406 Q222 429 212 434 Q194 426 184 414 Q169 379 162 350 Q149 297 142 264 Q132 204 128 170 Q121 125 120 104 Q116 81 116 76 Q117 85 120 98 Q122 117 126 140 Q134 192 140 226 Q150 285 158 316 Q171 368 182 394 Q197 422 206 432 Q223 430 234 422 Q253 393 264 368 Q282 317 292 282 Q309 225 320 190 Q335 141 344 116 Q356 88 364 78 Q374 80 380 88 Q384 104 388 126 Q392 172 394 204 Q394 263 392 296 Q389 351 386 378 Q379 413 374 426 Q364 433 358 428 Q350 417 340 398 Q331 375 322 348 Q307 293 296 258 Q279 202 266 168 Q249 123 238 102 Q221 81 212 76 Q193 85 182 100 Q175 119 166 144 Q153 195 146 228 Q135 287 130 320 Q123 371 120 396" stroke="url(#g0)" stroke-linecap="round" stroke-linejoin="round" stroke-width="8" fill="none" opacity="0.12"/><path d="M544 509 Q534 514 518 508 Q494 488 464 454 Q407 379 362 319 Q290 220 245 159 Q169 76 126 37 Q62 1 31 -2 Q-9 24 -26 57 Q-36 136 -33 193 Q-12 293 9 352 Q58 436 93 474 Q164 510 207 514 Q284 487 328 454 Q399 375 440 315 Q490 218 514 159 Q540 74 547 35 Q541 1 528 -2 Q509 10 483 34 Q429 103 389 155 Q317 255 273 315 Q196 407 153 452 Q84 502 50 513 Q4 501 -18 475 Q-34 407 -36 356 Q-21 255 -5 192 Q39 104 72 58 Q138 10 181 -3 Q255 11 303 36 Q375 106 416 159 Q473 257 500 318 Q534 410 544 454 Q545 502 537 513 Q522 510 499 495 Q471 463 439 422 Q372 332 330 275 Q255 174 208 118 Q135 45 94 15 Q38 -2 9 5 Q-23 50 -33 89 Q-34 181 -26 241 Q4 339 31 397 Q86 467 127 497 Q197 514 244 506 Q320 460 363 420 Q431 331 465 271 Q510 171 530 114 Q546 43 547 14 Q533 -2 515 5 Q489 29 459 64 Q398 145 355 202 Q282 303 234 360 Q162 442 118 481 Q56 512 26 513 Q-13 482 -28 447 Q-35 365 -32 309 Q-9 207 14 150 Q64 68 101 30 Q171 0 214 -1 Q293 31 335 64 Q407 147 445 205 Q495 306 518 362 Q542 445 548 482" stroke="url(#g0)" stroke-linecap="round" stroke-linejoin="round" stroke-width="25" fill="none" opacity="0.43" filter="url(#softGlow)"/><path d="M544 509 Q534 514 518 508 Q494 488 464 454 Q407 379 362 319 Q290 220 245 159 Q169 76 126 37 Q62 1 31 -2 Q-9 24 -26 57 Q-36 136 -33 193 Q-12 293 9 352 Q58 436 93 474 Q164 510 207 514 Q284 487 328 454 Q399 375 440 315 Q490 218 514 159 Q540 74 547 35 Q541 1 528 -2 Q509 10 483 34 Q429 103 389 155 Q317 255 273 315 Q196 407 153 452 Q84 502 50 513 Q4 501 -18 475 Q-34 407 -36 356 Q-21 255 -5 192 Q39 104 72 58 Q138 10 181 -3 Q255 11 303 36 Q375 106 416 159 Q473 257 500 318 Q534 410 544 454 Q545 502 537 513 Q522 510 499 495 Q471 463 439 422 Q372 332 330 275 Q255 174 208 118 Q135 45 94 15 Q38 -2 9 5 Q-23 50 -33 89 Q-34 181 -26 241 Q4 339 31 397 Q86 467 127 497 Q197 514 244 506 Q320 460 363 420 Q431 331 465 271 Q510 171 530 114 Q546 43 547 14 Q533 -2 515 5 Q489 29 459 64 Q398 145 355 202 Q282 303 234 360 Q162 442 118 481 Q56 512 26 513 Q-13 482 -28 447 Q-35 365 -32 309 Q-9 207 14 150 Q64 68 101 30 Q171 0 214 -1 Q293 31 335 64 Q407 147 445 205 Q495 306 518 362 Q542 445 548 482" stroke="url(#g0)" stroke-linecap="round" stroke-linejoin="round" stroke-width="3" fill="none" opacity=".95"/></svg>