<svg viewBox="0 0 512 512" xmlns="http://www.w3.org/2000/svg"><!-- Token #1012 | Electric Blue | Legendary --><defs><linearGradient id="g0"><stop offset="0%" stop-color="#2ffff"/><stop offset="50%" stop-color="#05fcff"/><stop offset="100%" stop-color="#28dff"/></linearGradient><filter id="softGlow" x="-30%" y="-30%" width="160%" height="160%"><feGaussianBlur stdDeviation="14"/></filter><pattern id="hatch" width="6" height="6" patternUnits="userSpaceOnUse" patternTransform="rotate(15)"><path d="M0 0 L0 6" stroke="#000" stroke-opacity=".05" stroke-width="1"/></pattern><pattern id="shimmer" width="4" height="4" patternUnits="userSpaceOnUse"><rect width="2" height="2" fill="#fff" opacity=".3"/></pattern></defs><rect width="512" height="512" fill="#a233f"/><rect width="512" height="512" fill="url(#hatch)" opacity=".06"/><rect width="512" height="512" fill="url(#shimmer)" opacity=".1"/><path d="M394 224 Q387 209 374 194 Q330 172 296 164 Q233 158 198 158 Q148 169 128 178 Q118 203 124 220 Q159 252 186 270 Q247 301 286 318 Q342 338 368 346 Q391 353 392 352 Q382 346 362 338 Q313 317 278 302 Q215 271 182 252 Q137 220 122 202 Q121 180 132 168 Q155 162 182 158 Q242 160 280 166 Q337 184 364 198 Q390 227 392 246 Q384 265 366 284 Q318 313 282 326 Q219 344 186 350 Q141 352 124 348 Q120 334 130 322 Q150 306 178 288 Q236 258 274 238 Q332 208 360 192 Q389 171 394 162 Q376 158 354 158 Q301 169 264 180 Q202 205 170 222 Q131 252 120 272 Q124 302 138 318 Q163 331 194 342 Q256 351 294 352 Q347 346 372 336 Q391 315 390 300 Q378 281 358 264 Q305 230 268 212 Q208 187 174 174 Q134 161 120 158 Q159 178 190 190 Q250 217 286 236 Q343 268 368 286 Q390 314 392 328 Q381 339 362 348 Q334 351 300 352 Q238 346 202 336 Q151 315 130 298 Q118 268 124 248 Q139 230 164 212 Q220 186 256 174 Q317 160 350 158 Q383 161 392 166 Q383 186 364 200 Q339 218 306 236 Q243 268 208 286 Q155 315 134 328 Q118 345 122 352 Q136 352 160 350 Q214 339 250 328 Q312 304 344 286 Q381 255 392 236" stroke="url(#g0)" stroke-linecap="round" stroke-linejoin="round" stroke-width="8" fill="none" opacity="0.12"/><path d="M198 184 Q211 172 230 158 Q263 139 282 132 Q311 128 322 130 Q330 138 328 148 Q318 160 306 174 Q275 202 254 220 Q222 253 204 274 Q185 305 180 324 Q185 349 194 360 Q209 371 226 378 Q260 382 280 380 Q309 372 320 362 Q330 341 328 326 Q319 307 308 290 Q279 256 258 236 Q224 204 208 186 Q187 161 180 148 Q184 134 192 130 Q207 128 224 130 Q257 139 276 148 Q306 169 320 186 Q329 215 328 234 Q314 268 300 288 Q269 318 248 336 Q216 358 200 368 Q184 379 180 382 Q187 379 200 374 Q214 364 234 354 Q267 329 286 312 Q313 282 324 260 Q329 228 326 210 Q307 179 290 164 Q259 145 238 136 Q207 129 194 128 Q181 134 180 142 Q187 153 198 166 Q213 181 230 198 Q265 229 284 250 Q311 282 322 302 Q330 331 326 346 Q309 366 294 374 Q261 381 240 382 Q210 376 196 368 Q182 348 180 334 Q192 306 204 286 Q234 253 254 234 Q288 202 304 184 Q324 160 330 148 Q326 134 316 130 Q302 128 284 130 Q251 139 230 150 Q203 172 190 188 Q180 218 182 238 Q189 257 202 276 Q231 309 250 326 Q285 351 302 362 Q323 376 330 380 Q326 381 318 378 Q304 369 288 360 Q254 338 234 322 Q204 292 192 272 Q181 239 182 220" stroke="url(#g0)" stroke-linecap="round" stroke-linejoin="round" stroke-width="10" fill="none" opacity="0.18"/><path d="M459 180 Q446 164 426 148 Q390 127 365 118 Q322 112 295 112 Q248 122 219 131 Q174 155 149 172 Q107 207 87 227 Q57 265 42 288 Q25 323 19 342 Q16 369 19 381 Q31 395 42 399 Q68 397 86 392 Q122 375 147 361 Q191 332 218 311 Q265 276 293 253 Q339 216 364 195 Q405 162 426 147 Q455 127 469 118 Q487 112 492 113 Q496 122 492 132 Q486 146 477 161 Q455 193 438 214 Q403 252 381 274 Q339 310 310 330 Q264 360 236 373 Q189 391 163 397 Q121 399 100 396 Q67 382 50 370 Q30 343 22 324 Q16 290 16 267 Q26 229 34 208 Q57 174 75 156 Q108 133 133 122 Q174 113 202 112 Q249 118 277 126 Q324 147 349 162 Q391 195 413 215 Q446 253 462 276 Q482 311 489 332 Q496 360 495 374 Q486 392 476 397 Q454 399 436 395 Q402 381 377 368 Q335 343 309 323 Q261 288 233 265 Q188 228 160 206 Q119 173 97 156 Q65 132 49 122 Q30 113 21 112 Q16 118 17 127 Q21 139 29 152 Q49 182 64 203 Q96 240 117 262 Q159 298 187 320 Q232 351 260 366 Q307 387 335 394 Q378 399 400 398 Q435 387 453 376 Q476 353 485 334 Q494 301 496 279 Q489 241 482 220" stroke="url(#g0)" stroke-linecap="round" stroke-linejoin="round" stroke-width="28" fill="none" opacity="0.5" filter="url(#softGlow)"/><path d="M459 180 Q446 164 426 148 Q390 127 365 118 Q322 112 295 112 Q248 122 219 131 Q174 155 149 172 Q107 207 87 227 Q57 265 42 288 Q25 323 19 342 Q16 369 19 381 Q31 395 42 399 Q68 397 86 392 Q122 375 147 361 Q191 332 218 311 Q265 276 293 253 Q339 216 364 195 Q405 162 426 147 Q455 127 469 118 Q487 112 492 113 Q496 122 492 132 Q486 146 477 161 Q455 193 438 214 Q403 252 381 274 Q339 310 310 330 Q264 360 236 373 Q189 391 163 397 Q121 399 100 396 Q67 382 50 370 Q30 343 22 324 Q16 290 16 267 Q26 229 34 208 Q57 174 75 156 Q108 133 133 122 Q174 113 202 112 Q249 118 277 126 Q324 147 349 162 Q391 195 413 215 Q446 253 462 276 Q482 311 489 332 Q496 360 495 374 Q486 392 476 397 Q454 399 436 395 Q402 381 377 368 Q335 343 309 323 Q261 288 233 265 Q188 228 160 206 Q119 173 97 156 Q65 132 49 122 Q30 113 21 112 Q16 118 17 127 Q21 139 29 152 Q49 182 64 203 Q96 240 117 262 Q159 298 187 320 Q232 351 260 366 Q307 387 335 394 Q378 399 400 398 Q435 387 453 376 Q476 353 485 334 Q494 301 496 279 Q489 241 482 220" stroke="url(#g0)" stroke-linecap="round" stroke-linejoin="round" stroke-width="3" fill="none" opacity=".95"/></svg>