<svg viewBox="0 0 512 512" xmlns="http://www.w3.org/2000/svg"><!-- Token #1013 | Golden Hour | Common --><defs><linearGradient id="g0"><stop offset="0%" stop-color="#f5da1b"/><stop offset="100%" stop-color="#f3ac19"/></linearGradient><filter id="softGlow" x="-30%" y="-30%" width="160%" height="160%"><feGaussianBlur stdDeviation="8.666666666666666"/></filter><pattern id="hatch" width="6" height="6" patternUnits="userSpaceOnUse" patternTransform="rotate(15)"><path d="M0 0 L0 6" stroke="#000" stroke-opacity=".05" stroke-width="1"/></pattern></defs><rect width="512" height="512" fill="#1e1a16"/><rect width="512" height="512" fill="url(#hatch)" opacity=".06"/><path d="M284 200 Q277 179 268 156 Q253 129 244 118 Q230 114 222 118 Q209 135 202 152 Q192 190 188 216 Q183 263 180 288 Q180 332 180 354 Q183 382 186 392 Q194 396 200 392 Q212 375 220 356 Q233 320 242 294 Q257 247 266 220 Q281 178 288 156 Q302 128 308 118 Q318 114 322 118 Q328 137 330 154 Q331 175 330 198 Q329 245 326 274 Q319 316 314 340 Q302 373 296 386 Q282 396 274 396 Q265 389 256 378 Q241 349 232 328 Q218 283 210 254 Q200 211 194 184 Q186 148 182 132 Q180 116 180 114 Q183 137 188 154 Q196 193 200 218 Q212 265 220 292 Q235 334 242 356 Q257 382 266 392 Q281 396 290 392 Q302 372 308 356 Q314 332 320 308 Q327 263 328 236 Q331 191 330 168 Q328 137 326 124 Q318 114 312 114 Q306 121 300 134 Q287 163 278 186 Q263 229 254 258 Q240 302 232 328 Q217 364 210 378 Q198 394 194 398 Q185 389 182 376 Q181 360 180 340 Q180 299 182 272 Q186 225 190 198 Q200 159 206 140 Q218 120 226 114 Q241 116 250 124 Q259 139 268 158 Q282 195 290 220 Q302 267 310 296 Q319 337 324 358 Q329 384 330 392 Q328 381 324 366 Q321 345 316 322 Q306 279 300 252" stroke="url(#g0)" stroke-linecap="round" stroke-linejoin="round" stroke-width="8" fill="none" opacity="0.12"/><path d="M364 156 Q365 164 366 176 Q363 196 360 210 Q352 233 344 248 Q331 273 320 286 Q302 310 290 324 Q268 343 256 352 Q233 366 220 372 Q201 379 190 380 Q173 380 164 376 Q158 372 152 366 Q149 358 146 348 Q144 330 146 318 Q151 296 156 282 Q168 257 176 242 Q194 217 204 204 Q226 182 238 170 Q260 153 272 146 Q294 136 306 132 Q324 130 334 130 Q348 135 354 140 Q363 153 364 162 Q366 180 364 192 Q359 215 354 230 Q341 254 332 270 Q316 293 304 308 Q284 328 270 340 Q250 357 236 364 Q215 375 204 378 Q185 380 176 380 Q162 375 156 370 Q148 357 146 348 Q144 330 146 316 Q152 295 156 280 Q169 255 178 240 Q194 217 206 202 Q226 182 240 170 Q261 153 274 144 Q295 135 306 132 Q325 130 334 130 Q348 135 354 140 Q363 153 364 162 Q366 173 366 184 Q361 207 358 220 Q346 245 338 260 Q322 285 312 298 Q292 322 278 334 Q258 351 244 360 Q223 372 210 376 Q192 380 182 380 Q167 377 160 374 Q150 362 146 354 Q144 336 144 324 Q149 302 154 288 Q164 265 172 250 Q188 225 198 210 Q219 188 232 176 Q244 165 258 156 Q279 142 292 136 Q312 131 322 130 Q339 131 346 134 Q353 140 358 146" stroke="url(#g0)" stroke-linecap="round" stroke-linejoin="round" stroke-width="10" fill="none" opacity="0.18"/><path d="M320 -23 Q263 -22 196 -13 Q93 28 41 63 Q-14 139 -30 189 Q-18 281 8 335 Q84 416 139 458 Q252 510 315 527 Q419 534 472 523 Q526 483 541 448 Q529 371 501 319 Q428 230 368 174 Q259 94 193 51 Q91 2 39 -17 Q-15 -22 -30 -12 Q-17 29 9 64 Q87 142 143 192 Q254 284 320 337 Q420 418 473 460 Q527 510 541 528 Q528 533 501 523 Q459 502 406 470 Q302 403 234 352 Q126 262 70 209 Q2 123 -24 76 Q-26 17 -9 -7 Q24 -20 71 -24 Q168 -5 234 20 Q345 81 406 127 Q488 215 521 268 Q542 357 534 406 Q486 474 440 504 Q342 532 277 535 Q167 516 105 492 Q23 429 -10 384 Q-30 297 -23 243 Q26 153 74 102 Q170 37 234 7 Q349 -20 409 -24 Q489 -4 522 22 Q542 83 534 128 Q485 216 438 272 Q340 360 273 409 Q163 475 102 506 Q22 532 -11 535 Q-30 514 -22 489 Q4 454 41 414 Q131 329 196 275 Q306 186 372 133 Q463 60 503 24 Q539 -13 541 -23 Q507 -14 468 4 Q380 58 315 99 Q203 183 139 236 Q48 328 8 378 Q-27 452 -30 487 Q5 525 43 535 Q133 525 196 507 Q309 453 375 409 Q464 328 503 275 Q540 182 540 130 Q506 58 466 22 Q376 -14 332 -22" stroke="url(#g0)" stroke-linecap="round" stroke-linejoin="round" stroke-width="23" fill="none" opacity="0.39999999999999997" filter="url(#softGlow)"/><path d="M320 -23 Q263 -22 196 -13 Q93 28 41 63 Q-14 139 -30 189 Q-18 281 8 335 Q84 416 139 458 Q252 510 315 527 Q419 534 472 523 Q526 483 541 448 Q529 371 501 319 Q428 230 368 174 Q259 94 193 51 Q91 2 39 -17 Q-15 -22 -30 -12 Q-17 29 9 64 Q87 142 143 192 Q254 284 320 337 Q420 418 473 460 Q527 510 541 528 Q528 533 501 523 Q459 502 406 470 Q302 403 234 352 Q126 262 70 209 Q2 123 -24 76 Q-26 17 -9 -7 Q24 -20 71 -24 Q168 -5 234 20 Q345 81 406 127 Q488 215 521 268 Q542 357 534 406 Q486 474 440 504 Q342 532 277 535 Q167 516 105 492 Q23 429 -10 384 Q-30 297 -23 243 Q26 153 74 102 Q170 37 234 7 Q349 -20 409 -24 Q489 -4 522 22 Q542 83 534 128 Q485 216 438 272 Q340 360 273 409 Q163 475 102 506 Q22 532 -11 535 Q-30 514 -22 489 Q4 454 41 414 Q131 329 196 275 Q306 186 372 133 Q463 60 503 24 Q539 -13 541 -23 Q507 -14 468 4 Q380 58 315 99 Q203 183 139 236 Q48 328 8 378 Q-27 452 -30 487 Q5 525 43 535 Q133 525 196 507 Q309 453 375 409 Q464 328 503 275 Q540 182 540 130 Q506 58 466 22 Q376 -14 332 -22" stroke="url(#g0)" stroke-linecap="round" stroke-linejoin="round" stroke-width="3" fill="none" opacity=".95"/></svg>