<svg viewBox="0 0 512 512" xmlns="http://www.w3.org/2000/svg"><!-- Token #1000 | Quantum Violet | Common --><defs><linearGradient id="g0"><stop offset="0%" stop-color="#9f00ff"/><stop offset="100%" stop-color="#4c0089"/></linearGradient><filter id="softGlow" x="-30%" y="-30%" width="160%" height="160%"><feGaussianBlur stdDeviation="10.666666666666666"/></filter><pattern id="hatch" width="6" height="6" patternUnits="userSpaceOnUse" patternTransform="rotate(15)"><path d="M0 0 L0 6" stroke="#000" stroke-opacity=".05" stroke-width="1"/></pattern></defs><rect width="512" height="512" fill="#0f091b"/><rect width="512" height="512" fill="url(#hatch)" opacity=".06"/><path d="M222 320 Q232 326 244 330 Q268 328 280 322 Q291 310 300 296 Q306 269 304 252 Q293 223 282 208 Q261 189 248 182 Q226 180 216 184 Q205 200 204 214 Q207 230 214 248 Q230 277 242 292 Q266 315 280 324 Q296 330 304 328 Q305 317 302 306 Q295 291 286 274 Q263 244 250 226 Q228 202 218 192 Q206 181 204 180 Q221 200 232 214 Q255 242 268 260 Q289 289 298 304 Q305 322 306 328 Q296 329 286 326 Q274 317 262 306 Q238 279 226 262 Q211 232 206 216 Q205 194 210 184 Q226 180 238 182 Q253 187 266 198 Q280 210 290 226 Q303 255 306 272 Q305 289 300 304 Q284 322 272 328 Q259 330 244 328 Q224 316 214 304 Q205 278 204 262 Q212 232 222 214 Q241 194 254 184 Q278 180 290 182 Q302 194 306 206 Q305 221 300 238 Q286 268 274 284 Q251 309 238 320 Q219 329 210 330 Q204 322 206 312 Q210 299 220 284 Q239 254 252 236 Q276 209 288 196 Q301 183 306 180 Q303 184 298 190 Q288 202 276 216 Q254 244 240 262 Q220 291 210 306 Q204 323 204 330 Q210 330 218 328 Q238 315 250 304 Q273 278 286 260 Q300 230 306 214 Q304 193 298 184 Q290 181 278 180 Q256 189 242 198 Q221 223 212 240 Q205 268 204 286 Q214 310 220 318" stroke="url(#g0)" stroke-linecap="round" stroke-linejoin="round" stroke-width="8" fill="none" opacity="0.12"/><path d="M104 31 Q110 27 119 35 Q128 63 138 103 Q155 191 167 257 Q188 357 202 411 Q224 469 237 484 Q261 470 274 441 Q289 397 302 343 Q324 239 336 175 Q356 92 368 52 Q385 27 393 32 Q402 57 409 94 Q419 183 424 245 Q430 348 432 401 Q433 465 432 482 Q427 473 423 445 Q415 369 409 314 Q395 207 386 147 Q370 71 359 39 Q340 28 326 43 Q313 75 300 118 Q278 215 263 281 Q241 376 226 424 Q203 476 191 485 Q171 462 158 426 Q139 341 129 282 Q114 176 106 119 Q95 53 89 31 Q83 34 80 56 Q79 97 79 145 Q81 247 83 312 Q90 404 94 444 Q106 482 114 483 Q123 466 132 434 Q149 350 160 290 Q182 186 195 130 Q217 58 230 33 Q253 32 266 51 Q282 90 295 137 Q316 236 329 299 Q350 395 362 440 Q380 481 389 484 Q397 469 405 439 Q417 359 422 299 Q428 194 431 137 Q433 63 432 35 Q422 82 416 130 Q405 228 397 288 Q382 387 371 434 Q354 479 342 485 Q320 456 307 417 Q285 330 272 267 Q248 165 233 111 Q211 48 198 28 Q177 38 165 63 Q153 105 141 158 Q125 261 116 323 Q104 412 96 453 Q88 484 84 481 Q81 460 79 426 Q79 337 80 275 Q85 175 88 117 Q97 51 102 35" stroke="url(#g0)" stroke-linecap="round" stroke-linejoin="round" stroke-width="25" fill="none" opacity="0.43" filter="url(#softGlow)"/><path d="M104 31 Q110 27 119 35 Q128 63 138 103 Q155 191 167 257 Q188 357 202 411 Q224 469 237 484 Q261 470 274 441 Q289 397 302 343 Q324 239 336 175 Q356 92 368 52 Q385 27 393 32 Q402 57 409 94 Q419 183 424 245 Q430 348 432 401 Q433 465 432 482 Q427 473 423 445 Q415 369 409 314 Q395 207 386 147 Q370 71 359 39 Q340 28 326 43 Q313 75 300 118 Q278 215 263 281 Q241 376 226 424 Q203 476 191 485 Q171 462 158 426 Q139 341 129 282 Q114 176 106 119 Q95 53 89 31 Q83 34 80 56 Q79 97 79 145 Q81 247 83 312 Q90 404 94 444 Q106 482 114 483 Q123 466 132 434 Q149 350 160 290 Q182 186 195 130 Q217 58 230 33 Q253 32 266 51 Q282 90 295 137 Q316 236 329 299 Q350 395 362 440 Q380 481 389 484 Q397 469 405 439 Q417 359 422 299 Q428 194 431 137 Q433 63 432 35 Q422 82 416 130 Q405 228 397 288 Q382 387 371 434 Q354 479 342 485 Q320 456 307 417 Q285 330 272 267 Q248 165 233 111 Q211 48 198 28 Q177 38 165 63 Q153 105 141 158 Q125 261 116 323 Q104 412 96 453 Q88 484 84 481 Q81 460 79 426 Q79 337 80 275 Q85 175 88 117 Q97 51 102 35" stroke="url(#g0)" stroke-linecap="round" stroke-linejoin="round" stroke-width="3" fill="none" opacity=".95"/></svg>