<svg viewBox="0 0 512 512" xmlns="http://www.w3.org/2000/svg"><!-- Token #1019 | Neon Flame | Common --><defs><linearGradient id="g0"><stop offset="0%" stop-color="#ff6100"/><stop offset="100%" stop-color="#fcd357"/></linearGradient><filter id="softGlow" x="-30%" y="-30%" width="160%" height="160%"><feGaussianBlur stdDeviation="8.333333333333334"/></filter><pattern id="hatch" width="6" height="6" patternUnits="userSpaceOnUse" patternTransform="rotate(15)"><path d="M0 0 L0 6" stroke="#000" stroke-opacity=".05" stroke-width="1"/></pattern></defs><rect width="512" height="512" fill="#161314"/><rect width="512" height="512" fill="url(#hatch)" opacity=".06"/><path d="M144 210 Q154 191 168 170 Q194 149 210 144 Q238 149 256 160 Q286 189 302 210 Q329 255 344 280 Q366 321 376 340 Q391 361 396 366 Q403 361 404 352 Q403 334 400 314 Q390 272 380 246 Q363 204 350 182 Q326 156 310 146 Q282 145 264 152 Q236 176 220 196 Q191 238 174 264 Q153 306 140 328 Q124 354 116 364 Q109 365 106 358 Q106 344 108 328 Q116 289 124 264 Q140 219 152 196 Q174 164 190 150 Q217 144 234 146 Q264 165 282 184 Q308 221 326 248 Q349 292 362 314 Q380 347 390 360 Q399 366 402 364 Q404 354 404 338 Q400 319 396 296 Q383 253 374 226 Q354 187 340 168 Q315 148 298 144 Q281 146 264 152 Q246 166 230 184 Q201 223 184 250 Q161 292 148 316 Q129 347 120 360 Q111 366 108 362 Q106 353 106 338 Q109 319 114 294 Q127 252 136 226 Q156 187 170 168 Q196 148 214 144 Q230 146 248 152 Q265 168 282 184 Q309 224 326 250 Q351 293 364 316 Q381 347 390 360 Q399 366 402 362 Q404 352 404 338 Q400 317 396 292 Q383 251 372 224 Q352 185 338 166 Q314 148 296 144 Q280 146 262 154 Q245 167 228 186 Q199 226 182 250 Q159 294 146 318 Q129 349 120 360 Q106 352 108 336 Q110 317 114 292 Q128 249 138 224" stroke="url(#g0)" stroke-linecap="round" stroke-linejoin="round" stroke-width="8" fill="none" opacity="0.12"/><path d="M312 180 Q303 166 294 154 Q279 148 268 152 Q259 160 248 176 Q239 195 230 218 Q213 259 204 284 Q189 321 180 340 Q169 358 162 362 Q155 360 150 354 Q144 339 140 322 Q135 284 132 258 Q130 218 130 194 Q130 166 132 154 Q144 162 150 176 Q159 210 166 234 Q179 277 186 302 Q201 334 210 350 Q225 363 234 362 Q246 355 256 344 Q272 314 282 292 Q297 249 306 224 Q322 186 330 170 Q342 151 348 148 Q360 155 364 166 Q371 197 376 220 Q379 261 380 286 Q381 324 380 340 Q377 360 374 362 Q368 355 364 344 Q354 313 348 290 Q337 247 328 224 Q315 186 306 170 Q291 151 282 148 Q263 155 254 166 Q245 184 234 206 Q219 245 208 270 Q193 310 186 330 Q173 354 166 362 Q154 360 148 352 Q144 337 140 318 Q134 282 132 256 Q130 215 130 192 Q130 164 132 152 Q137 148 140 152 Q148 173 154 190 Q164 230 172 256 Q185 296 194 318 Q207 346 216 358 Q234 362 244 358 Q260 337 270 318 Q285 280 296 254 Q311 214 320 192 Q333 163 340 152 Q352 148 358 152 Q367 173 370 192 Q376 230 378 256 Q380 296 382 320 Q380 348 378 358 Q373 362 370 358 Q362 336 356 318 Q346 280 338 254 Q325 213 316 190" stroke="url(#g0)" stroke-linecap="round" stroke-linejoin="round" stroke-width="10" fill="none" opacity="0.18"/><path d="M115 241 Q148 228 193 212 Q278 188 327 174 Q397 155 424 144 Q442 132 434 126 Q413 122 379 120 Q304 121 254 124 Q172 133 129 141 Q82 157 70 169 Q82 191 106 206 Q142 220 184 236 Q270 263 321 279 Q391 305 421 319 Q442 342 436 353 Q416 364 386 372 Q313 384 260 388 Q178 392 137 391 Q85 386 71 380 Q79 367 101 357 Q136 346 178 333 Q262 310 312 296 Q385 269 418 252 Q441 227 438 211 Q420 196 391 182 Q321 162 270 150 Q186 136 142 129 Q89 122 72 120 Q77 121 96 124 Q157 134 202 141 Q289 159 335 170 Q402 192 429 207 Q441 233 431 248 Q406 265 372 280 Q296 306 245 320 Q163 342 122 354 Q79 371 69 378 Q86 388 113 390 Q180 392 228 389 Q314 382 361 375 Q417 360 437 348 Q437 328 421 314 Q390 299 351 283 Q270 257 218 241 Q141 215 106 200 Q72 176 70 164 Q98 147 131 137 Q206 127 253 122 Q338 120 381 121 Q428 126 441 132 Q430 145 406 155 Q342 175 294 188 Q208 213 161 228 Q101 255 77 271 Q72 298 85 312 Q113 326 152 340 Q231 359 280 368 Q361 381 400 386 Q436 391 442 391 Q420 388 389 383 Q319 372 268 363 Q184 344 140 331 Q88 309 71 292 Q78 266 98 250" stroke="url(#g0)" stroke-linecap="round" stroke-linejoin="round" stroke-width="21" fill="none" opacity="0.36" filter="url(#softGlow)"/><path d="M115 241 Q148 228 193 212 Q278 188 327 174 Q397 155 424 144 Q442 132 434 126 Q413 122 379 120 Q304 121 254 124 Q172 133 129 141 Q82 157 70 169 Q82 191 106 206 Q142 220 184 236 Q270 263 321 279 Q391 305 421 319 Q442 342 436 353 Q416 364 386 372 Q313 384 260 388 Q178 392 137 391 Q85 386 71 380 Q79 367 101 357 Q136 346 178 333 Q262 310 312 296 Q385 269 418 252 Q441 227 438 211 Q420 196 391 182 Q321 162 270 150 Q186 136 142 129 Q89 122 72 120 Q77 121 96 124 Q157 134 202 141 Q289 159 335 170 Q402 192 429 207 Q441 233 431 248 Q406 265 372 280 Q296 306 245 320 Q163 342 122 354 Q79 371 69 378 Q86 388 113 390 Q180 392 228 389 Q314 382 361 375 Q417 360 437 348 Q437 328 421 314 Q390 299 351 283 Q270 257 218 241 Q141 215 106 200 Q72 176 70 164 Q98 147 131 137 Q206 127 253 122 Q338 120 381 121 Q428 126 441 132 Q430 145 406 155 Q342 175 294 188 Q208 213 161 228 Q101 255 77 271 Q72 298 85 312 Q113 326 152 340 Q231 359 280 368 Q361 381 400 386 Q436 391 442 391 Q420 388 389 383 Q319 372 268 363 Q184 344 140 331 Q88 309 71 292 Q78 266 98 250" stroke="url(#g0)" stroke-linecap="round" stroke-linejoin="round" stroke-width="3" fill="none" opacity=".95"/></svg>