<svg viewBox="0 0 512 512" xmlns="http://www.w3.org/2000/svg"><!-- Token #1005 | Neon Flame | Legendary --><defs><linearGradient id="g0"><stop offset="0%" stop-color="#9a5d33"/><stop offset="50%" stop-color="#c3b16f"/><stop offset="100%" stop-color="#adbc76"/></linearGradient><filter id="softGlow" x="-30%" y="-30%" width="160%" height="160%"><feGaussianBlur stdDeviation="13"/></filter><pattern id="hatch" width="6" height="6" patternUnits="userSpaceOnUse" patternTransform="rotate(15)"><path d="M0 0 L0 6" stroke="#000" stroke-opacity=".05" stroke-width="1"/></pattern><pattern id="shimmer" width="4" height="4" patternUnits="userSpaceOnUse"><rect width="2" height="2" fill="#fff" opacity=".3"/></pattern></defs><rect width="512" height="512" fill="#c121b"/><rect width="512" height="512" fill="url(#hatch)" opacity=".06"/><rect width="512" height="512" fill="url(#shimmer)" opacity=".1"/><path d="M148 326 Q152 329 158 330 Q167 326 176 318 Q192 297 206 282 Q226 253 240 234 Q262 209 274 196 Q296 183 308 180 Q320 181 330 186 Q346 204 354 218 Q362 246 366 264 Q369 291 368 306 Q364 322 360 328 Q353 330 346 328 Q337 321 328 310 Q308 286 296 270 Q274 241 262 224 Q239 200 226 190 Q205 181 194 180 Q176 190 166 200 Q154 224 148 240 Q145 258 142 276 Q142 302 142 314 Q149 327 156 330 Q167 325 176 316 Q187 306 198 292 Q218 263 232 244 Q254 218 268 204 Q290 187 302 182 Q321 182 332 188 Q341 197 350 210 Q360 236 364 252 Q368 282 368 298 Q366 318 362 326 Q357 329 350 330 Q343 324 332 316 Q316 295 304 280 Q282 250 270 234 Q247 207 234 196 Q212 183 200 180 Q182 186 172 194 Q158 215 152 230 Q145 260 142 276 Q142 303 144 314 Q150 327 156 330 Q162 328 172 322 Q181 312 192 300 Q211 274 224 254 Q246 227 258 212 Q282 191 294 184 Q314 180 326 184 Q341 198 350 210 Q360 237 364 254 Q368 284 368 298 Q365 319 362 326 Q352 329 344 326 Q335 319 326 308 Q306 283 294 268 Q272 237 258 220 Q237 198 224 188 Q203 180 192 180 Q181 186 172 194 Q158 217 152 232 Q143 261 142 278 Q142 304 144 316" stroke="url(#g0)" stroke-linecap="round" stroke-linejoin="round" stroke-width="8" fill="none" opacity="0.12"/><path d="M370 140 Q360 147 346 158 Q320 178 302 190 Q272 216 254 232 Q225 258 208 274 Q179 299 164 314 Q140 338 130 348 Q114 365 108 374 Q101 384 100 388 Q103 390 108 388 Q121 382 130 376 Q150 363 164 352 Q191 332 208 318 Q238 293 256 278 Q286 253 304 236 Q333 210 346 196 Q370 172 380 162 Q396 144 402 136 Q409 126 410 122 Q400 123 392 126 Q376 136 364 144 Q339 162 324 174 Q295 197 278 212 Q247 237 228 254 Q200 279 182 296 Q157 320 144 334 Q125 354 116 364 Q105 378 102 384 Q100 387 100 390 Q104 390 108 388 Q121 382 130 376 Q152 361 166 352 Q192 330 210 316 Q240 293 258 276 Q288 250 304 234 Q333 209 348 194 Q370 172 382 160 Q397 143 404 136 Q409 125 410 122 Q400 123 392 126 Q382 132 370 140 Q349 156 334 168 Q305 189 288 202 Q258 229 240 244 Q209 271 192 286 Q166 312 152 326 Q132 346 122 358 Q108 373 104 380 Q100 387 100 390 Q104 390 110 388 Q122 382 132 376 Q153 361 168 350 Q194 330 212 316 Q241 291 258 276 Q289 249 306 232 Q335 207 350 192 Q372 171 382 158 Q398 143 404 134 Q409 125 410 122 Q399 123 390 126 Q381 132 374 138" stroke="url(#g0)" stroke-linecap="round" stroke-linejoin="round" stroke-width="10" fill="none" opacity="0.18"/><path d="M331 400 Q316 390 295 374 Q257 340 234 317 Q198 276 180 250 Q155 209 145 184 Q139 150 141 132 Q155 108 167 99 Q196 93 217 94 Q255 106 277 117 Q314 144 332 165 Q356 202 366 227 Q372 270 370 295 Q357 335 344 356 Q314 386 294 400 Q257 414 233 418 Q197 415 179 409 Q155 388 145 373 Q139 339 141 316 Q155 274 167 249 Q197 208 217 183 Q256 149 279 130 Q314 108 332 99 Q357 93 367 94 Q372 107 370 119 Q363 134 352 152 Q326 188 307 211 Q270 255 247 279 Q211 321 190 343 Q162 376 150 392 Q140 410 139 416 Q149 418 159 413 Q186 396 205 382 Q241 352 265 329 Q302 290 322 264 Q349 223 361 197 Q372 160 372 141 Q362 115 352 103 Q325 94 306 93 Q269 101 246 111 Q210 134 189 154 Q162 190 150 213 Q140 256 139 280 Q149 323 160 345 Q187 377 205 392 Q243 411 266 417 Q302 417 323 412 Q350 396 361 382 Q372 350 372 328 Q362 288 351 262 Q324 221 305 195 Q268 160 245 139 Q208 114 188 103 Q162 94 149 93 Q140 102 139 111 Q144 125 152 142 Q176 176 194 199 Q228 241 252 266 Q290 309 311 332 Q340 366 355 384 Q369 405 373 413 Q367 418 359 416 Q346 409 335 403" stroke="url(#g0)" stroke-linecap="round" stroke-linejoin="round" stroke-width="28" fill="none" opacity="0.5" filter="url(#softGlow)"/><path d="M331 400 Q316 390 295 374 Q257 340 234 317 Q198 276 180 250 Q155 209 145 184 Q139 150 141 132 Q155 108 167 99 Q196 93 217 94 Q255 106 277 117 Q314 144 332 165 Q356 202 366 227 Q372 270 370 295 Q357 335 344 356 Q314 386 294 400 Q257 414 233 418 Q197 415 179 409 Q155 388 145 373 Q139 339 141 316 Q155 274 167 249 Q197 208 217 183 Q256 149 279 130 Q314 108 332 99 Q357 93 367 94 Q372 107 370 119 Q363 134 352 152 Q326 188 307 211 Q270 255 247 279 Q211 321 190 343 Q162 376 150 392 Q140 410 139 416 Q149 418 159 413 Q186 396 205 382 Q241 352 265 329 Q302 290 322 264 Q349 223 361 197 Q372 160 372 141 Q362 115 352 103 Q325 94 306 93 Q269 101 246 111 Q210 134 189 154 Q162 190 150 213 Q140 256 139 280 Q149 323 160 345 Q187 377 205 392 Q243 411 266 417 Q302 417 323 412 Q350 396 361 382 Q372 350 372 328 Q362 288 351 262 Q324 221 305 195 Q268 160 245 139 Q208 114 188 103 Q162 94 149 93 Q140 102 139 111 Q144 125 152 142 Q176 176 194 199 Q228 241 252 266 Q290 309 311 332 Q340 366 355 384 Q369 405 373 413 Q367 418 359 416 Q346 409 335 403" stroke="url(#g0)" stroke-linecap="round" stroke-linejoin="round" stroke-width="3" fill="none" opacity=".95"/></svg>