<svg viewBox="0 0 512 512" xmlns="http://www.w3.org/2000/svg"><!-- Token #1018 | Quantum Violet | Common --><defs><linearGradient id="g0"><stop offset="0%" stop-color="#a112f5"/><stop offset="100%" stop-color="#500c82"/></linearGradient><filter id="softGlow" x="-30%" y="-30%" width="160%" height="160%"><feGaussianBlur stdDeviation="8"/></filter><pattern id="hatch" width="6" height="6" patternUnits="userSpaceOnUse" patternTransform="rotate(15)"><path d="M0 0 L0 6" stroke="#000" stroke-opacity=".05" stroke-width="1"/></pattern></defs><rect width="512" height="512" fill="#120e1c"/><rect width="512" height="512" fill="url(#hatch)" opacity=".06"/><path d="M334 376 Q344 369 352 362 Q346 344 334 332 Q315 319 292 306 Q249 281 222 266 Q186 240 170 224 Q158 201 160 186 Q171 174 186 162 Q224 146 250 138 Q292 129 316 126 Q343 124 350 126 Q347 132 336 138 Q304 151 280 162 Q236 182 210 196 Q177 219 164 234 Q159 261 164 276 Q179 291 196 304 Q237 328 264 340 Q304 358 326 366 Q348 378 352 382 Q348 385 338 386 Q322 385 300 382 Q258 374 232 366 Q192 350 174 340 Q159 318 160 304 Q167 289 180 274 Q216 249 242 234 Q286 209 310 194 Q338 174 350 162 Q349 145 340 138 Q325 132 304 128 Q261 124 234 124 Q196 129 176 134 Q160 147 158 156 Q166 168 178 178 Q197 192 220 206 Q264 231 290 246 Q326 272 342 288 Q352 311 348 324 Q338 338 322 350 Q283 365 256 372 Q214 381 192 384 Q166 386 158 384 Q164 377 176 370 Q194 363 216 354 Q261 334 286 322 Q323 299 340 282 Q351 257 350 244 Q330 217 310 202 Q271 181 244 168 Q203 151 182 142 Q162 132 158 126 Q163 125 174 124 Q191 125 212 128 Q257 137 282 144 Q320 160 338 172 Q351 193 350 208 Q332 232 314 248 Q274 272 248 288 Q206 313 184 326 Q163 346 158 356 Q168 370 182 378 Q202 382 226 384 Q269 386 294 384" stroke="url(#g0)" stroke-linecap="round" stroke-linejoin="round" stroke-width="8" fill="none" opacity="0.12"/><path d="M170 324 Q164 320 160 312 Q155 304 150 294 Q147 282 144 268 Q141 245 140 232 Q140 212 142 202 Q145 190 148 186 Q153 186 158 188 Q166 200 172 210 Q184 229 192 242 Q204 265 212 278 Q227 299 236 308 Q251 320 260 324 Q275 324 284 320 Q298 310 306 300 Q319 280 326 268 Q338 245 344 232 Q352 211 356 202 Q361 194 364 188 Q370 191 370 198 Q368 214 366 226 Q363 238 360 252 Q354 275 348 288 Q339 305 332 314 Q326 320 318 324 Q305 324 298 320 Q288 315 280 306 Q271 296 262 284 Q247 262 238 248 Q223 226 214 214 Q201 198 194 192 Q186 187 178 186 Q168 188 162 194 Q157 201 152 210 Q149 222 146 234 Q142 258 140 272 Q140 292 140 304 Q143 316 146 322 Q149 325 152 324 Q160 318 166 312 Q172 303 178 292 Q190 271 198 258 Q210 234 220 222 Q235 203 242 196 Q257 187 266 186 Q283 188 290 194 Q299 201 308 210 Q320 230 326 244 Q334 258 342 272 Q350 292 354 304 Q361 318 364 322 Q370 318 370 310 Q368 294 366 284 Q361 260 358 246 Q350 226 344 212 Q334 197 328 190 Q315 186 308 186 Q299 189 290 194 Q275 208 266 220 Q257 232 248 246 Q233 268 224 282 Q210 301 202 310 Q190 321 182 324" stroke="url(#g0)" stroke-linecap="round" stroke-linejoin="round" stroke-width="10" fill="none" opacity="0.18"/><path d="M226 263 Q216 193 203 115 Q185 22 177 -7 Q168 7 165 45 Q165 108 166 184 Q174 320 181 397 Q198 491 210 518 Q232 505 245 464 Q269 352 283 273 Q304 138 316 68 Q332 1 338 -11 Q345 32 347 86 Q344 212 339 295 Q327 421 316 479 Q297 520 284 513 Q270 478 256 424 Q233 299 219 213 Q199 88 188 33 Q175 -9 169 -2 Q166 33 165 89 Q168 215 173 300 Q186 425 195 479 Q214 520 228 513 Q242 477 256 420 Q280 297 293 209 Q313 86 323 33 Q336 -9 342 -1 Q346 35 347 89 Q343 218 338 300 Q326 427 316 480 Q297 521 282 511 Q269 475 255 420 Q231 292 218 209 Q198 86 187 30 Q175 -9 169 -1 Q166 36 165 93 Q168 220 173 304 Q186 427 196 483 Q216 521 229 511 Q243 473 256 420 Q281 289 293 204 Q313 84 324 27 Q337 -9 343 0 Q346 38 347 94 Q343 222 338 309 Q326 429 315 483 Q295 521 282 510 Q269 473 254 416 Q231 287 218 204 Q197 81 187 26 Q174 -9 168 0 Q166 39 165 97 Q169 227 173 309 Q186 431 196 486 Q217 520 229 510 Q243 472 257 412 Q281 284 293 204 Q315 79 325 24 Q346 41 347 98 Q343 229 338 309 Q325 433 314 488 Q295 521 282 510 Q268 469 254 412" stroke="url(#g0)" stroke-linecap="round" stroke-linejoin="round" stroke-width="21" fill="none" opacity="0.35" filter="url(#softGlow)"/><path d="M226 263 Q216 193 203 115 Q185 22 177 -7 Q168 7 165 45 Q165 108 166 184 Q174 320 181 397 Q198 491 210 518 Q232 505 245 464 Q269 352 283 273 Q304 138 316 68 Q332 1 338 -11 Q345 32 347 86 Q344 212 339 295 Q327 421 316 479 Q297 520 284 513 Q270 478 256 424 Q233 299 219 213 Q199 88 188 33 Q175 -9 169 -2 Q166 33 165 89 Q168 215 173 300 Q186 425 195 479 Q214 520 228 513 Q242 477 256 420 Q280 297 293 209 Q313 86 323 33 Q336 -9 342 -1 Q346 35 347 89 Q343 218 338 300 Q326 427 316 480 Q297 521 282 511 Q269 475 255 420 Q231 292 218 209 Q198 86 187 30 Q175 -9 169 -1 Q166 36 165 93 Q168 220 173 304 Q186 427 196 483 Q216 521 229 511 Q243 473 256 420 Q281 289 293 204 Q313 84 324 27 Q337 -9 343 0 Q346 38 347 94 Q343 222 338 309 Q326 429 315 483 Q295 521 282 510 Q269 473 254 416 Q231 287 218 204 Q197 81 187 26 Q174 -9 168 0 Q166 39 165 97 Q169 227 173 309 Q186 431 196 486 Q217 520 229 510 Q243 472 257 412 Q281 284 293 204 Q315 79 325 24 Q346 41 347 98 Q343 229 338 309 Q325 433 314 488 Q295 521 282 510 Q268 469 254 412" stroke="url(#g0)" stroke-linecap="round" stroke-linejoin="round" stroke-width="3" fill="none" opacity=".95"/></svg>