<svg viewBox="0 0 512 512" xmlns="http://www.w3.org/2000/svg"><!-- Token #1001 | Golden Hour | Common --><defs><linearGradient id="g0"><stop offset="0%" stop-color="#f2c800"/><stop offset="100%" stop-color="#f29400"/></linearGradient><filter id="softGlow" x="-30%" y="-30%" width="160%" height="160%"><feGaussianBlur stdDeviation="10"/></filter><pattern id="hatch" width="6" height="6" patternUnits="userSpaceOnUse" patternTransform="rotate(15)"><path d="M0 0 L0 6" stroke="#000" stroke-opacity=".05" stroke-width="1"/></pattern></defs><rect width="512" height="512" fill="#110c07"/><rect width="512" height="512" fill="url(#hatch)" opacity=".06"/><path d="M116 246 Q114 237 116 226 Q123 218 136 210 Q152 204 172 200 Q215 198 242 200 Q288 208 314 214 Q353 229 372 240 Q391 258 396 270 Q392 287 384 296 Q369 302 352 308 Q311 312 286 312 Q239 306 212 300 Q171 287 150 278 Q126 258 116 248 Q115 229 120 220 Q131 212 146 206 Q167 201 190 198 Q234 199 262 202 Q308 212 332 220 Q366 237 382 248 Q395 266 396 278 Q392 287 384 296 Q356 306 336 310 Q293 312 266 310 Q219 302 194 296 Q156 279 138 270 Q119 251 114 240 Q118 223 128 214 Q154 204 176 200 Q218 198 246 200 Q291 208 318 216 Q355 231 372 240 Q392 260 396 270 Q395 281 390 290 Q377 298 362 304 Q326 311 302 312 Q255 309 228 304 Q184 291 162 282 Q133 266 120 254 Q114 235 116 226 Q133 212 150 204 Q184 199 210 198 Q256 201 284 206 Q326 219 350 228 Q379 246 390 256 Q396 275 394 284 Q377 299 360 306 Q324 311 300 312 Q254 309 226 304 Q183 291 160 282 Q131 264 120 254 Q114 235 116 224 Q133 211 150 204 Q186 199 212 198 Q257 201 286 206 Q328 219 350 228 Q379 246 390 256 Q396 275 394 286 Q377 299 360 306 Q324 311 298 312 Q252 308 224 304 Q182 291 160 282 Q131 264 120 254" stroke="url(#g0)" stroke-linecap="round" stroke-linejoin="round" stroke-width="8" fill="none" opacity="0.12"/><path d="M511 117 Q496 158 470 217 Q408 320 364 374 Q281 438 230 453 Q146 435 102 401 Q41 314 15 254 Q-6 153 -7 106 Q17 62 43 59 Q78 77 118 111 Q199 199 248 259 Q334 357 382 406 Q449 450 481 452 Q513 413 519 369 Q515 312 501 251 Q458 153 420 104 Q344 61 295 59 Q210 99 159 143 Q85 242 50 303 Q8 393 -5 430 Q34 412 67 367 Q137 269 184 207 Q269 118 321 80 Q399 58 440 69 Q491 130 509 182 Q519 284 511 343 Q477 420 444 447 Q374 447 327 423 Q242 347 188 286 Q112 187 71 132 Q20 71 1 57 Q-7 79 0 115 Q19 166 45 223 Q108 326 153 380 Q237 440 288 454 Q371 431 414 396 Q475 305 499 245 Q518 148 517 100 Q492 60 466 59 Q430 81 388 115 Q309 204 257 268 Q171 365 124 410 Q58 451 27 452 Q-2 408 -8 360 Q6 264 26 203 Q84 114 125 77 Q204 58 258 72 Q342 134 387 185 Q455 290 485 350 Q514 424 519 448 Q505 446 483 420 Q451 376 415 324 Q339 221 286 159 Q201 87 154 63 Q80 66 44 93 Q18 135 0 188 Q-6 292 1 351 Q39 424 71 448 Q143 445 192 418 Q276 340 326 281 Q406 178 445 125 Q494 70 512 57 Q518 83 514 107" stroke="url(#g0)" stroke-linecap="round" stroke-linejoin="round" stroke-width="25" fill="none" opacity="0.43999999999999995" filter="url(#softGlow)"/><path d="M511 117 Q496 158 470 217 Q408 320 364 374 Q281 438 230 453 Q146 435 102 401 Q41 314 15 254 Q-6 153 -7 106 Q17 62 43 59 Q78 77 118 111 Q199 199 248 259 Q334 357 382 406 Q449 450 481 452 Q513 413 519 369 Q515 312 501 251 Q458 153 420 104 Q344 61 295 59 Q210 99 159 143 Q85 242 50 303 Q8 393 -5 430 Q34 412 67 367 Q137 269 184 207 Q269 118 321 80 Q399 58 440 69 Q491 130 509 182 Q519 284 511 343 Q477 420 444 447 Q374 447 327 423 Q242 347 188 286 Q112 187 71 132 Q20 71 1 57 Q-7 79 0 115 Q19 166 45 223 Q108 326 153 380 Q237 440 288 454 Q371 431 414 396 Q475 305 499 245 Q518 148 517 100 Q492 60 466 59 Q430 81 388 115 Q309 204 257 268 Q171 365 124 410 Q58 451 27 452 Q-2 408 -8 360 Q6 264 26 203 Q84 114 125 77 Q204 58 258 72 Q342 134 387 185 Q455 290 485 350 Q514 424 519 448 Q505 446 483 420 Q451 376 415 324 Q339 221 286 159 Q201 87 154 63 Q80 66 44 93 Q18 135 0 188 Q-6 292 1 351 Q39 424 71 448 Q143 445 192 418 Q276 340 326 281 Q406 178 445 125 Q494 70 512 57 Q518 83 514 107" stroke="url(#g0)" stroke-linecap="round" stroke-linejoin="round" stroke-width="3" fill="none" opacity=".95"/></svg>