<svg viewBox="0 0 512 512" xmlns="http://www.w3.org/2000/svg"><!-- Token #1010 | Neon Flame | Epic --><defs><linearGradient id="g0"><stop offset="0%" stop-color="#ff8d00"/><stop offset="50%" stop-color="#fffc60"/><stop offset="100%" stop-color="#ffff6b"/></linearGradient><filter id="softGlow" x="-30%" y="-30%" width="160%" height="160%"><feGaussianBlur stdDeviation="13"/></filter><pattern id="hatch" width="6" height="6" patternUnits="userSpaceOnUse" patternTransform="rotate(15)"><path d="M0 0 L0 6" stroke="#000" stroke-opacity=".05" stroke-width="1"/></pattern><radialGradient id="radialGlow"><stop offset="0%" stop-color="#fff" stop-opacity=".3"/><stop offset="100%" stop-color="#fff" stop-opacity="0"/></radialGradient></defs><rect width="512" height="512" fill="#2e2727"/><rect width="512" height="512" fill="url(#hatch)" opacity=".06"/><circle cx="256" cy="256" r="200" fill="url(#radialGlow)" opacity=".05"/><path d="M360 378 Q377 387 392 394 Q354 390 322 380 Q262 358 224 342 Q167 309 140 288 Q118 250 116 228 Q139 194 164 172 Q220 146 258 134 Q320 118 350 114 Q385 113 394 118 Q385 134 366 148 Q318 175 282 194 Q217 230 180 254 Q137 290 122 310 Q118 344 130 360 Q150 373 180 384 Q239 396 278 398 Q335 394 364 386 Q391 367 394 352 Q386 334 370 314 Q322 279 286 256 Q224 219 188 198 Q140 166 124 150 Q118 128 126 120 Q147 114 174 112 Q234 117 272 124 Q331 144 360 158 Q389 190 396 210 Q379 246 358 270 Q304 305 266 326 Q205 355 170 370 Q130 388 118 394 Q121 398 136 394 Q180 382 214 370 Q279 346 314 326 Q365 292 384 272 Q395 233 386 210 Q368 190 344 170 Q285 145 248 132 Q187 118 156 112 Q124 114 116 120 Q119 128 132 140 Q156 154 186 170 Q247 205 284 224 Q342 263 370 286 Q392 321 394 340 Q372 366 346 380 Q293 392 252 398 Q192 395 160 390 Q125 374 116 360 Q125 331 144 312 Q192 277 228 254 Q292 217 328 196 Q372 164 388 148 Q392 127 382 118 Q360 113 332 112 Q272 118 232 126 Q175 145 146 160 Q119 192 116 212 Q134 250 156 272 Q210 307 248 328 Q310 357 344 372" stroke="url(#g0)" stroke-linecap="round" stroke-linejoin="round" stroke-width="8" fill="none" opacity="0.12"/><path d="M352 328 Q358 318 366 304 Q377 273 382 254 Q389 222 392 204 Q397 183 398 174 Q394 185 392 198 Q387 212 382 230 Q372 264 366 284 Q353 311 344 324 Q329 337 320 338 Q309 336 300 328 Q289 317 276 302 Q266 284 254 266 Q236 233 224 214 Q207 190 196 180 Q186 173 176 172 Q167 174 160 180 Q151 193 144 208 Q132 238 128 258 Q120 290 116 306 Q113 328 112 336 Q116 324 120 312 Q124 296 128 278 Q138 245 144 226 Q157 198 166 186 Q175 176 184 172 Q195 172 204 176 Q222 194 234 208 Q253 238 264 260 Q282 290 292 308 Q311 329 322 336 Q337 338 346 334 Q359 316 368 302 Q378 271 382 250 Q390 220 394 202 Q397 181 398 174 Q395 179 392 190 Q389 204 384 222 Q376 253 370 272 Q357 303 350 316 Q334 334 326 338 Q315 338 304 334 Q286 316 274 300 Q256 270 246 250 Q227 218 216 202 Q198 181 188 174 Q173 173 164 176 Q155 187 148 198 Q136 228 130 248 Q123 280 118 298 Q114 322 112 332 Q115 331 118 318 Q121 305 126 288 Q134 255 140 236 Q153 207 162 192 Q177 176 186 172 Q202 176 212 182 Q232 205 244 222 Q262 255 272 274 Q291 304 302 318 Q313 329 322 336 Q337 337 346 332" stroke="url(#g0)" stroke-linecap="round" stroke-linejoin="round" stroke-width="10" fill="none" opacity="0.18"/><path d="M353 373 Q299 355 229 330 Q122 283 70 253 Q15 204 5 176 Q32 138 69 121 Q124 109 186 103 Q301 106 366 115 Q453 143 488 164 Q504 210 491 239 Q459 269 410 299 Q308 344 242 366 Q131 395 76 405 Q18 409 5 403 Q28 381 63 361 Q154 321 221 291 Q334 241 396 212 Q472 167 499 144 Q499 116 476 106 Q437 103 382 104 Q273 120 205 137 Q102 174 53 201 Q10 251 6 281 Q24 309 55 336 Q146 375 212 392 Q322 407 387 410 Q467 400 495 386 Q502 353 481 327 Q443 300 392 270 Q284 220 217 191 Q110 150 61 130 Q12 108 6 102 Q39 106 78 115 Q178 145 246 167 Q355 212 416 242 Q484 292 504 321 Q493 362 464 382 Q418 397 358 406 Q250 409 183 403 Q83 379 39 358 Q7 318 10 288 Q34 258 72 229 Q168 181 234 157 Q347 124 406 110 Q478 102 501 104 Q496 122 470 138 Q426 160 370 186 Q259 234 192 264 Q91 312 46 339 Q8 376 8 393 Q52 408 96 409 Q201 398 268 385 Q378 350 435 324 Q492 278 506 247 Q484 198 449 170 Q400 148 338 128 Q224 108 159 102 Q66 107 29 117 Q7 147 15 169 Q46 196 90 225 Q192 276 259 305 Q368 349 425 371 Q489 397 505 406 Q488 408 456 401" stroke="url(#g0)" stroke-linecap="round" stroke-linejoin="round" stroke-width="28" fill="none" opacity="0.5" filter="url(#softGlow)"/><path d="M353 373 Q299 355 229 330 Q122 283 70 253 Q15 204 5 176 Q32 138 69 121 Q124 109 186 103 Q301 106 366 115 Q453 143 488 164 Q504 210 491 239 Q459 269 410 299 Q308 344 242 366 Q131 395 76 405 Q18 409 5 403 Q28 381 63 361 Q154 321 221 291 Q334 241 396 212 Q472 167 499 144 Q499 116 476 106 Q437 103 382 104 Q273 120 205 137 Q102 174 53 201 Q10 251 6 281 Q24 309 55 336 Q146 375 212 392 Q322 407 387 410 Q467 400 495 386 Q502 353 481 327 Q443 300 392 270 Q284 220 217 191 Q110 150 61 130 Q12 108 6 102 Q39 106 78 115 Q178 145 246 167 Q355 212 416 242 Q484 292 504 321 Q493 362 464 382 Q418 397 358 406 Q250 409 183 403 Q83 379 39 358 Q7 318 10 288 Q34 258 72 229 Q168 181 234 157 Q347 124 406 110 Q478 102 501 104 Q496 122 470 138 Q426 160 370 186 Q259 234 192 264 Q91 312 46 339 Q8 376 8 393 Q52 408 96 409 Q201 398 268 385 Q378 350 435 324 Q492 278 506 247 Q484 198 449 170 Q400 148 338 128 Q224 108 159 102 Q66 107 29 117 Q7 147 15 169 Q46 196 90 225 Q192 276 259 305 Q368 349 425 371 Q489 397 505 406 Q488 408 456 401" stroke="url(#g0)" stroke-linecap="round" stroke-linejoin="round" stroke-width="3" fill="none" opacity=".95"/></svg>