<svg viewBox="0 0 512 512" xmlns="http://www.w3.org/2000/svg"><!-- Token #1007 | Silver Chrome | Common --><defs><linearGradient id="g0"><stop offset="0%" stop-color="#dadada"/><stop offset="100%" stop-color="#f3f3f3"/></linearGradient><filter id="softGlow" x="-30%" y="-30%" width="160%" height="160%"><feGaussianBlur stdDeviation="11"/></filter><pattern id="hatch" width="6" height="6" patternUnits="userSpaceOnUse" patternTransform="rotate(15)"><path d="M0 0 L0 6" stroke="#000" stroke-opacity=".05" stroke-width="1"/></pattern></defs><rect width="512" height="512" fill="#09080a"/><rect width="512" height="512" fill="url(#hatch)" opacity=".06"/><path d="M276 222 Q267 207 258 192 Q241 171 232 162 Q217 156 208 158 Q201 164 192 172 Q178 193 172 210 Q162 241 156 260 Q148 292 144 308 Q139 332 136 344 Q136 353 136 354 Q137 346 138 338 Q141 326 144 310 Q151 282 158 262 Q168 230 174 212 Q185 186 192 174 Q209 160 216 156 Q231 160 240 166 Q256 185 266 200 Q281 229 290 248 Q305 280 312 298 Q327 325 334 336 Q344 350 350 354 Q360 350 364 344 Q368 334 370 320 Q374 292 374 274 Q374 242 374 224 Q371 195 368 180 Q361 164 356 158 Q346 157 340 162 Q334 169 326 180 Q313 206 304 224 Q291 256 282 274 Q266 306 258 320 Q240 341 232 348 Q217 354 208 352 Q199 346 190 336 Q178 314 172 298 Q165 279 158 260 Q150 228 146 210 Q141 185 138 172 Q136 159 136 156 Q136 160 138 166 Q141 186 144 202 Q152 231 158 250 Q168 282 174 300 Q186 326 194 338 Q209 351 218 354 Q227 353 236 348 Q245 340 254 328 Q265 313 274 296 Q289 266 298 246 Q311 216 320 198 Q332 176 340 166 Q350 157 356 156 Q363 165 366 174 Q371 197 374 214 Q375 245 374 264 Q373 295 372 312 Q366 334 362 344 Q354 353 348 354 Q342 350 336 342 Q328 332 320 318 Q313 302 304 284 Q289 252 280 234" stroke="url(#g0)" stroke-linecap="round" stroke-linejoin="round" stroke-width="8" fill="none" opacity="0.12"/><path d="M206 262 Q221 256 242 250 Q279 240 298 234 Q324 224 332 218 Q333 210 326 206 Q313 200 296 196 Q261 191 240 188 Q208 183 192 180 Q177 178 176 178 Q181 178 192 178 Q219 179 238 180 Q275 183 296 186 Q322 191 332 194 Q333 202 328 208 Q315 212 300 216 Q266 226 244 232 Q210 242 194 248 Q178 258 176 264 Q185 274 198 280 Q229 290 250 296 Q286 303 304 308 Q327 315 334 318 Q332 325 322 326 Q307 329 290 330 Q255 332 232 332 Q201 332 188 332 Q184 325 196 322 Q225 316 246 312 Q283 304 302 300 Q325 291 334 286 Q332 275 324 270 Q310 264 292 258 Q258 248 236 242 Q204 231 188 226 Q177 216 176 212 Q183 206 194 202 Q223 195 244 190 Q279 185 300 184 Q324 180 332 178 Q313 178 296 178 Q261 181 238 182 Q206 187 190 190 Q177 197 176 202 Q187 209 202 214 Q233 223 254 228 Q290 238 308 244 Q329 255 334 260 Q330 272 320 278 Q304 283 286 288 Q250 297 228 302 Q198 311 184 314 Q176 321 178 324 Q185 327 198 328 Q230 331 252 332 Q287 334 306 332 Q327 331 334 330 Q317 323 302 320 Q267 313 246 308 Q211 300 196 296 Q178 286 176 280 Q185 270 196 264" stroke="url(#g0)" stroke-linecap="round" stroke-linejoin="round" stroke-width="10" fill="none" opacity="0.18"/><path d="M388 172 Q364 186 332 204 Q266 237 226 256 Q165 288 134 306 Q98 336 86 352 Q91 376 104 388 Q129 399 158 406 Q218 416 258 418 Q322 417 358 414 Q401 403 418 394 Q423 374 416 360 Q381 334 352 316 Q291 285 254 266 Q187 234 150 214 Q109 185 92 168 Q87 142 94 128 Q129 111 158 102 Q220 94 258 92 Q324 93 360 96 Q402 107 418 116 Q423 136 416 150 Q381 177 352 194 Q289 226 250 244 Q187 276 150 296 Q108 326 92 342 Q87 368 96 380 Q131 399 158 408 Q221 417 260 418 Q326 417 360 414 Q402 403 418 394 Q423 374 416 360 Q379 332 348 314 Q289 284 248 264 Q184 232 148 214 Q107 184 92 166 Q88 141 96 128 Q114 117 140 108 Q173 100 210 94 Q276 92 314 92 Q371 98 396 104 Q421 121 424 132 Q418 147 402 162 Q379 178 348 196 Q287 227 244 246 Q183 278 150 296 Q106 327 90 344 Q87 369 96 382 Q133 400 162 408 Q224 417 266 418 Q328 417 362 414 Q404 402 420 392 Q422 372 414 358 Q394 343 368 324 Q310 295 274 276 Q206 244 168 224 Q121 194 98 176 Q86 150 90 136 Q103 124 124 114 Q153 104 188 98 Q253 92 292 92 Q353 95 382 100 Q416 115 424 126 Q416 148 400 162" stroke="url(#g0)" stroke-linecap="round" stroke-linejoin="round" stroke-width="12" fill="none" opacity="0.24"/><path d="M198 482 Q169 458 139 423 Q113 341 109 287 Q130 193 154 139 Q213 68 251 36 Q317 14 351 17 Q391 55 401 88 Q394 170 376 227 Q326 320 290 373 Q222 445 184 476 Q136 497 116 493 Q111 457 120 421 Q160 340 195 284 Q260 190 299 136 Q356 66 382 35 Q401 14 399 18 Q372 55 343 90 Q283 171 242 228 Q179 322 148 375 Q115 446 109 476 Q124 497 147 493 Q177 474 213 445 Q280 371 318 320 Q370 226 391 169 Q401 90 394 52 Q357 18 326 13 Q288 24 247 46 Q185 108 152 157 Q117 251 109 306 Q121 393 141 436 Q196 484 233 497 Q300 487 336 465 Q382 403 398 354 Q399 260 386 205 Q342 118 308 74 Q241 28 201 14 Q148 24 124 46 Q112 82 109 126 Q131 213 156 270 Q215 364 254 410 Q319 470 352 490 Q391 495 401 481 Q400 454 388 415 Q346 332 313 276 Q248 183 207 131 Q151 61 127 33 Q128 40 151 68 Q208 144 248 198 Q313 292 348 348 Q389 426 401 462 Q396 494 379 498 Q352 486 318 462 Q253 398 215 351 Q156 256 129 198 Q110 115 112 70 Q139 26 167 13 Q202 17 241 31 Q307 85 344 130 Q386 219 399 273 Q397 367 382 415 Q336 471 298 492 Q233 494 205 485" stroke="url(#g0)" stroke-linecap="round" stroke-linejoin="round" stroke-width="28" fill="none" opacity="0.5" filter="url(#softGlow)"/><path d="M198 482 Q169 458 139 423 Q113 341 109 287 Q130 193 154 139 Q213 68 251 36 Q317 14 351 17 Q391 55 401 88 Q394 170 376 227 Q326 320 290 373 Q222 445 184 476 Q136 497 116 493 Q111 457 120 421 Q160 340 195 284 Q260 190 299 136 Q356 66 382 35 Q401 14 399 18 Q372 55 343 90 Q283 171 242 228 Q179 322 148 375 Q115 446 109 476 Q124 497 147 493 Q177 474 213 445 Q280 371 318 320 Q370 226 391 169 Q401 90 394 52 Q357 18 326 13 Q288 24 247 46 Q185 108 152 157 Q117 251 109 306 Q121 393 141 436 Q196 484 233 497 Q300 487 336 465 Q382 403 398 354 Q399 260 386 205 Q342 118 308 74 Q241 28 201 14 Q148 24 124 46 Q112 82 109 126 Q131 213 156 270 Q215 364 254 410 Q319 470 352 490 Q391 495 401 481 Q400 454 388 415 Q346 332 313 276 Q248 183 207 131 Q151 61 127 33 Q128 40 151 68 Q208 144 248 198 Q313 292 348 348 Q389 426 401 462 Q396 494 379 498 Q352 486 318 462 Q253 398 215 351 Q156 256 129 198 Q110 115 112 70 Q139 26 167 13 Q202 17 241 31 Q307 85 344 130 Q386 219 399 273 Q397 367 382 415 Q336 471 298 492 Q233 494 205 485" stroke="url(#g0)" stroke-linecap="round" stroke-linejoin="round" stroke-width="3" fill="none" opacity=".95"/></svg>