<svg viewBox="0 0 512 512" xmlns="http://www.w3.org/2000/svg"><!-- Token #1003 | Fire Opal | Common --><defs><linearGradient id="g0"><stop offset="0%" stop-color="#d64a26"/><stop offset="100%" stop-color="#e4c734"/></linearGradient><filter id="softGlow" x="-30%" y="-30%" width="160%" height="160%"><feGaussianBlur stdDeviation="10"/></filter><pattern id="hatch" width="6" height="6" patternUnits="userSpaceOnUse" patternTransform="rotate(15)"><path d="M0 0 L0 6" stroke="#000" stroke-opacity=".05" stroke-width="1"/></pattern></defs><rect width="512" height="512" fill="#1c1010"/><rect width="512" height="512" fill="url(#hatch)" opacity=".06"/><path d="M152 308 Q163 314 178 318 Q211 328 234 332 Q272 339 294 342 Q327 346 344 348 Q363 350 370 350 Q362 347 352 344 Q324 341 304 336 Q269 330 246 326 Q209 316 188 310 Q161 300 148 292 Q139 282 138 274 Q143 266 152 258 Q165 251 180 244 Q212 232 234 224 Q273 213 294 206 Q328 196 344 192 Q364 182 370 178 Q372 173 368 170 Q361 167 350 164 Q324 161 304 160 Q267 160 246 160 Q208 163 186 166 Q160 171 148 174 Q139 181 138 186 Q149 194 160 200 Q186 212 206 218 Q243 229 266 238 Q304 249 324 256 Q350 268 362 276 Q371 289 372 296 Q366 302 358 308 Q335 318 318 324 Q281 331 258 336 Q221 341 198 344 Q169 348 156 350 Q142 350 138 350 Q144 348 152 346 Q165 343 180 340 Q215 335 236 330 Q274 322 298 316 Q330 306 346 300 Q364 290 370 282 Q372 275 368 268 Q361 260 350 254 Q334 246 316 238 Q281 226 258 218 Q219 208 198 202 Q169 192 154 186 Q141 179 138 174 Q140 171 146 168 Q156 165 172 162 Q201 160 222 160 Q261 160 284 162 Q318 165 336 168 Q359 173 368 176 Q372 184 368 190 Q361 196 348 202 Q322 212 300 218 Q264 231 242 238 Q205 250 184 258 Q158 269 148 278 Q139 290 138 296" stroke="url(#g0)" stroke-linecap="round" stroke-linejoin="round" stroke-width="8" fill="none" opacity="0.12"/><path d="M382 338 Q384 346 382 354 Q378 354 370 350 Q352 333 336 314 Q308 280 288 256 Q256 219 236 198 Q202 170 184 160 Q160 156 146 160 Q132 179 128 196 Q127 230 130 254 Q143 292 154 312 Q179 340 196 350 Q229 355 248 350 Q281 331 302 314 Q331 279 346 256 Q367 217 376 196 Q383 170 384 160 Q377 156 370 160 Q350 179 336 196 Q308 232 288 256 Q254 293 234 314 Q202 340 184 350 Q158 354 146 350 Q132 331 128 314 Q127 278 132 256 Q144 217 156 196 Q180 170 196 160 Q230 156 250 160 Q284 179 302 196 Q331 232 348 256 Q367 295 376 314 Q383 340 384 350 Q376 354 368 350 Q349 331 334 312 Q306 277 286 254 Q253 215 232 196 Q201 170 184 160 Q158 156 146 160 Q132 180 128 198 Q126 219 128 240 Q139 280 148 302 Q171 332 186 344 Q218 354 238 354 Q271 340 292 324 Q322 290 338 268 Q360 230 370 208 Q381 177 384 166 Q380 156 374 156 Q365 165 352 176 Q329 205 312 228 Q278 266 258 288 Q224 322 206 338 Q176 352 162 354 Q142 346 134 334 Q129 318 126 298 Q130 260 136 236 Q153 200 166 182 Q182 168 198 158 Q232 157 252 162 Q286 181 306 200 Q334 235 348 258 Q369 297 378 318" stroke="url(#g0)" stroke-linecap="round" stroke-linejoin="round" stroke-width="10" fill="none" opacity="0.18"/><path d="M437 200 Q472 161 505 118 Q526 66 521 48 Q499 43 463 48 Q417 65 363 92 Q259 158 196 203 Q99 288 50 337 Q-1 405 -15 437 Q-3 466 24 469 Q62 459 112 438 Q212 381 276 337 Q377 256 430 206 Q497 130 519 94 Q524 53 508 43 Q474 45 433 58 Q341 105 277 145 Q172 224 113 274 Q37 354 5 395 Q-15 446 -9 464 Q37 466 78 453 Q172 405 233 366 Q340 288 401 234 Q475 157 507 116 Q527 64 519 47 Q497 43 461 48 Q413 67 356 95 Q254 161 189 208 Q94 292 47 341 Q-3 408 -15 440 Q-1 467 26 468 Q66 458 116 436 Q218 377 282 333 Q382 252 436 201 Q499 127 520 92 Q523 52 504 42 Q472 46 430 60 Q336 108 272 148 Q166 228 110 277 Q34 357 2 399 Q-15 449 -8 464 Q18 469 52 462 Q102 443 155 416 Q262 347 325 300 Q420 217 467 167 Q515 101 527 69 Q511 44 483 43 Q443 55 390 78 Q289 137 229 178 Q125 264 73 313 Q12 386 -11 424 Q-10 461 8 469 Q41 465 86 450 Q180 401 245 359 Q348 281 404 232 Q481 151 510 110 Q527 62 517 46 Q492 43 457 50 Q370 89 310 124 Q203 198 142 248 Q57 330 19 374 Q-13 434 -14 456 Q19 469 57 460 Q143 422 202 387 Q310 312 372 261" stroke="url(#g0)" stroke-linecap="round" stroke-linejoin="round" stroke-width="24" fill="none" opacity="0.41" filter="url(#softGlow)"/><path d="M437 200 Q472 161 505 118 Q526 66 521 48 Q499 43 463 48 Q417 65 363 92 Q259 158 196 203 Q99 288 50 337 Q-1 405 -15 437 Q-3 466 24 469 Q62 459 112 438 Q212 381 276 337 Q377 256 430 206 Q497 130 519 94 Q524 53 508 43 Q474 45 433 58 Q341 105 277 145 Q172 224 113 274 Q37 354 5 395 Q-15 446 -9 464 Q37 466 78 453 Q172 405 233 366 Q340 288 401 234 Q475 157 507 116 Q527 64 519 47 Q497 43 461 48 Q413 67 356 95 Q254 161 189 208 Q94 292 47 341 Q-3 408 -15 440 Q-1 467 26 468 Q66 458 116 436 Q218 377 282 333 Q382 252 436 201 Q499 127 520 92 Q523 52 504 42 Q472 46 430 60 Q336 108 272 148 Q166 228 110 277 Q34 357 2 399 Q-15 449 -8 464 Q18 469 52 462 Q102 443 155 416 Q262 347 325 300 Q420 217 467 167 Q515 101 527 69 Q511 44 483 43 Q443 55 390 78 Q289 137 229 178 Q125 264 73 313 Q12 386 -11 424 Q-10 461 8 469 Q41 465 86 450 Q180 401 245 359 Q348 281 404 232 Q481 151 510 110 Q527 62 517 46 Q492 43 457 50 Q370 89 310 124 Q203 198 142 248 Q57 330 19 374 Q-13 434 -14 456 Q19 469 57 460 Q143 422 202 387 Q310 312 372 261" stroke="url(#g0)" stroke-linecap="round" stroke-linejoin="round" stroke-width="3" fill="none" opacity=".95"/></svg>